<svg width="157" height="43" viewBox="0 0 157 43" fill="none" xmlns="http://www.w3.org/2000/svg">
<path fill-rule="evenodd" clip-rule="evenodd" d="M30.0006 14.4302C26.1614 14.4302 23.0463 17.5975 23.0463 21.5005C23.0463 25.4047 26.1614 28.5683 30.0006 28.5683C33.8398 28.5683 36.9524 25.4047 36.9524 21.5005C36.9524 17.5963 33.841 14.4302 30.0006 14.4302ZM30.0006 24.2715C28.495 24.2715 27.2757 23.0314 27.2757 21.5005C27.2757 19.9695 28.495 18.7295 30.0006 18.7295C31.5063 18.7295 32.7256 19.9695 32.7256 21.5005C32.7256 23.0314 31.5063 24.2715 30.0006 24.2715Z" fill="#D200FE"/>
<path fill-rule="evenodd" clip-rule="evenodd" d="M29.9994 20.3472C30.6259 20.3472 31.1336 20.863 31.1336 21.4995C31.1336 22.136 30.6259 22.6518 29.9994 22.6518C29.3728 22.6518 28.8651 22.136 28.8651 21.4995C28.8664 20.8643 29.3741 20.3472 29.9994 20.3472Z" fill="white"/>
<path d="M8.85512 0C8.85512 0 8.73007 0.135943 8.49497 0.391313C8.37741 0.518363 8.23235 0.675905 8.06103 0.861398C7.97724 0.955414 7.88095 1.0507 7.78966 1.16251C7.69712 1.27304 7.59832 1.3912 7.49453 1.5157C7.39073 1.64021 7.28194 1.77107 7.16689 1.90829C7.10936 1.97689 7.05058 2.04677 6.99056 2.11919C6.93053 2.19034 6.86926 2.26403 6.81173 2.3428C6.57663 2.65534 6.32152 2.99202 6.05015 3.35284C5.78878 3.72129 5.52367 4.12277 5.23729 4.54076C5.16351 4.64367 5.09848 4.75547 5.03095 4.86601C4.96342 4.97654 4.89339 5.08834 4.82461 5.20142C4.68455 5.42757 4.54199 5.66007 4.39692 5.89638C4.26186 6.14032 4.12555 6.38806 3.98549 6.64216C3.91546 6.76921 3.84543 6.89626 3.77415 7.02585C3.73914 7.09065 3.70287 7.15544 3.66785 7.22024C3.63534 7.28758 3.60283 7.35364 3.56906 7.42098C3.30895 7.96221 3.02007 8.51106 2.77872 9.10312C2.65491 9.3966 2.51985 9.69136 2.3998 9.99628C2.28475 10.3025 2.16845 10.6137 2.0509 10.9276C1.92709 11.2388 1.8283 11.5641 1.722 11.8893C1.66948 12.0519 1.61571 12.2158 1.56318 12.3797C1.50941 12.5436 1.45439 12.7088 1.41187 12.8778C1.32058 13.2144 1.22804 13.5524 1.1355 13.8942C1.11299 13.9793 1.08673 14.0644 1.06797 14.1508L1.01044 14.4113C0.971675 14.5853 0.934159 14.7594 0.895392 14.9347C0.856625 15.11 0.817858 15.2854 0.779091 15.462C0.739073 15.6386 0.715313 15.8177 0.684049 15.9956C0.624023 16.3538 0.558995 16.7121 0.50272 17.0742C0.302632 18.5239 0.200088 20.0142 0.188833 21.4968C0.201338 22.9922 0.302632 24.4711 0.50272 25.9245C0.558995 26.2866 0.624023 26.6449 0.684049 27.0032C0.716563 27.181 0.740324 27.3614 0.779091 27.5368C0.817858 27.7134 0.856625 27.8887 0.895392 28.064C0.934159 28.2394 0.972926 28.4134 1.01044 28.5875L1.06797 28.8479C1.08673 28.9343 1.11299 29.0194 1.1355 29.1046C1.22804 29.4463 1.32058 29.7855 1.41187 30.121C1.45439 30.2899 1.50941 30.4551 1.56318 30.619C1.61696 30.7829 1.66948 30.9468 1.722 31.1094C1.8283 31.4347 1.92709 31.7586 2.0509 32.0712C2.16845 32.385 2.28475 32.695 2.3998 33.0024C2.51985 33.3074 2.65491 33.6009 2.77872 33.8956C3.01882 34.4877 3.30895 35.0365 3.56906 35.5777C3.60158 35.6451 3.63534 35.7124 3.66785 35.7785C3.70412 35.8433 3.73914 35.9081 3.77415 35.9729C3.84543 36.1025 3.91546 36.2295 3.98549 36.3566C4.12555 36.6094 4.26311 36.8584 4.39692 37.1023C4.54324 37.3387 4.6858 37.5712 4.82461 37.7973C4.89464 37.9104 4.96342 38.0222 5.03095 38.1327C5.09973 38.2433 5.16476 38.3538 5.23729 38.4567C5.52367 38.8747 5.78878 39.2762 6.05015 39.6446C6.32152 40.0054 6.57663 40.3421 6.81173 40.6547C6.86926 40.7334 6.93053 40.8071 6.99056 40.8783C7.05058 40.9507 7.10936 41.0206 7.16689 41.0892C7.28194 41.2264 7.39073 41.3572 7.49453 41.4818C7.59832 41.6063 7.69712 41.7244 7.78966 41.8349C7.88095 41.9468 7.97724 42.042 8.06103 42.1361C8.2311 42.3215 8.37616 42.4791 8.49372 42.6061C8.72882 42.8615 8.85512 42.9975 8.85512 42.9975C8.85512 42.9975 8.72757 42.8628 8.48871 42.6112C8.36866 42.4854 8.2211 42.3304 8.04852 42.1475C7.96348 42.0547 7.86594 41.9607 7.77215 41.8515C7.67836 41.7422 7.57831 41.6253 7.47202 41.5034C7.36572 41.3801 7.25442 41.2505 7.13812 41.1146C7.07935 41.0472 7.01932 40.9774 6.95804 40.9062C6.89677 40.8351 6.83424 40.7626 6.77546 40.6852C6.53536 40.3764 6.27525 40.0423 5.99637 39.6853C5.72876 39.3206 5.45739 38.9217 5.16226 38.5075C5.08722 38.4046 5.0197 38.2953 4.95092 38.1848C4.88214 38.0743 4.81085 37.9625 4.74082 37.8494C4.59826 37.6232 4.4532 37.392 4.30563 37.1557C4.16807 36.913 4.02801 36.664 3.88545 36.4112C3.81417 36.2841 3.74289 36.1571 3.67036 36.0275C3.63409 35.9627 3.59782 35.8979 3.56156 35.8331C3.52779 35.7658 3.49403 35.6997 3.46151 35.6324C3.19515 35.0911 2.90002 34.5423 2.65366 33.9502C2.5261 33.6555 2.38855 33.362 2.26599 33.0571C2.14844 32.7496 2.02839 32.4396 1.90708 32.1245C1.84831 31.967 1.78078 31.8107 1.73076 31.6481C1.67823 31.4867 1.62446 31.3241 1.57069 31.1602C1.51691 30.9963 1.46314 30.8324 1.40937 30.6673C1.35559 30.5021 1.29932 30.3369 1.2568 30.1667C1.16426 29.8287 1.07047 29.4883 0.976677 29.1452C0.954167 29.0588 0.927906 28.9737 0.907897 28.8873L0.849121 28.6256C0.810354 28.4503 0.770337 28.2749 0.73157 28.0996C0.692803 27.923 0.652786 27.7477 0.612768 27.5698C0.572751 27.3932 0.54774 27.2128 0.515225 27.0324C0.453949 26.6728 0.38767 26.312 0.330144 25.9486C0.122554 24.4939 0.0150066 22.9922 0 21.5032C0.0150066 20.0014 0.122554 18.5099 0.328894 17.0501C0.386419 16.6867 0.452698 16.3259 0.513975 15.9663C0.54774 15.7872 0.5715 15.6068 0.611517 15.4289C0.651535 15.2523 0.690302 15.0757 0.730319 14.8991C0.769086 14.7225 0.809104 14.5472 0.847871 14.3731L0.906647 14.1114C0.926655 14.0238 0.952917 13.9386 0.975427 13.8535C1.06922 13.5105 1.16301 13.17 1.25555 12.832C1.29807 12.6618 1.35434 12.4966 1.40812 12.3315C1.46189 12.1663 1.51566 12.0024 1.56944 11.8385C1.67573 11.512 1.77828 11.1867 1.90583 10.8742C2.02714 10.5604 2.14594 10.2491 2.26474 9.94164C2.38729 9.63673 2.5261 9.34197 2.65241 9.04848C2.89877 8.45643 3.1939 7.90631 3.46026 7.36635C3.49403 7.29901 3.52779 7.23167 3.56031 7.16561C3.59657 7.10081 3.63284 7.03602 3.66911 6.97122C3.74164 6.84163 3.81292 6.71458 3.8842 6.58753C4.02676 6.3347 4.16682 6.08568 4.30438 5.84302C4.4532 5.60671 4.59826 5.37548 4.73957 5.14933C4.81085 5.03625 4.88089 4.92445 4.94967 4.81392C5.01845 4.70338 5.08597 4.59412 5.16101 4.49121C5.45489 4.07703 5.72625 3.67809 5.99387 3.31346C6.27149 2.95645 6.53161 2.62231 6.77296 2.31358C6.83174 2.23481 6.89427 2.16239 6.95554 2.09124C7.01682 2.02009 7.07685 1.95021 7.13562 1.88288C7.25317 1.74693 7.36447 1.61734 7.46952 1.49411C7.57581 1.37087 7.67586 1.25525 7.76965 1.14599C7.86344 1.03546 7.96098 0.941439 8.04602 0.849963C8.21984 0.667011 8.36741 0.512011 8.48621 0.386231C8.72757 0.134673 8.85512 0 8.85512 0Z" fill="white"/>
<path d="M10.3508 1.52075C10.3508 1.52075 10.2345 1.6478 10.0156 1.88411C9.90681 2.00227 9.77175 2.14965 9.61293 2.32117C9.5354 2.40883 9.44536 2.49776 9.36032 2.60067C9.27403 2.70359 9.18274 2.81285 9.08645 2.92846C8.89512 3.16096 8.67627 3.41252 8.45242 3.69839C8.23358 3.98806 7.99723 4.30187 7.74462 4.63728C7.50201 4.97905 7.25565 5.35257 6.98928 5.74135C6.73292 6.13647 6.48031 6.56336 6.20769 7.00168C6.08264 7.22783 5.95508 7.45906 5.82503 7.6941C5.76 7.81226 5.69497 7.93041 5.62869 8.05111C5.59617 8.11082 5.56241 8.17181 5.5299 8.23152C5.49988 8.29378 5.46862 8.35603 5.43861 8.41828C5.19725 8.9214 4.92838 9.43087 4.70579 9.981C4.59074 10.2542 4.46568 10.5273 4.35438 10.8106C4.24809 11.0952 4.13929 11.3836 4.03049 11.6758C3.91544 11.9655 3.82415 12.2666 3.72536 12.569C3.67659 12.7202 3.62781 12.8727 3.57779 13.0251C3.52777 13.1776 3.4765 13.33 3.43773 13.4876C3.35269 13.8001 3.26766 14.1152 3.18137 14.4328C3.16011 14.5129 3.13635 14.5916 3.11884 14.6717L3.06507 14.9143C3.03005 15.0757 2.99379 15.2383 2.95752 15.4009C2.92126 15.5636 2.88624 15.7275 2.84997 15.8901C2.81371 16.054 2.7912 16.2204 2.76119 16.3868C2.70616 16.7197 2.64614 17.0526 2.59361 17.388C2.40728 18.736 2.31224 20.117 2.30223 21.4993C2.31349 22.8854 2.40728 24.2614 2.59361 25.6107C2.64614 25.9461 2.70616 26.2802 2.76119 26.6118C2.7912 26.777 2.81371 26.9447 2.84997 27.1086C2.88624 27.2725 2.92251 27.4351 2.95752 27.5977C2.99379 27.7603 3.0288 27.923 3.06507 28.0843L3.11884 28.327C3.13635 28.407 3.16136 28.4858 3.18137 28.5658C3.26766 28.8835 3.35269 29.1985 3.43773 29.5111C3.4765 29.6686 3.52777 29.8211 3.57779 29.9736C3.62781 30.126 3.67659 30.2785 3.72536 30.4297C3.82415 30.732 3.91544 31.0331 4.03049 31.3228C4.13929 31.615 4.24809 31.9034 4.35438 32.188C4.46568 32.4714 4.59074 32.7445 4.70579 33.0177C4.92838 33.5678 5.19725 34.0785 5.43861 34.5804C5.46862 34.6426 5.49988 34.7049 5.5299 34.7671C5.56366 34.8281 5.59617 34.8878 5.62869 34.9476C5.69497 35.067 5.76 35.1864 5.82503 35.3046C5.95508 35.5396 6.08264 35.7708 6.20769 35.997C6.48031 36.4353 6.73292 36.8622 6.98928 37.2573C7.25565 37.6461 7.50076 38.0196 7.74462 38.3614C7.99723 38.6968 8.23358 39.0106 8.45242 39.3003C8.67627 39.5861 8.89512 39.8377 9.08645 40.0702C9.18274 40.1858 9.27403 40.2951 9.36032 40.398C9.44536 40.5022 9.53415 40.5898 9.61293 40.6775C9.77175 40.849 9.90556 40.9964 10.0156 41.1145C10.2345 41.3521 10.3508 41.4792 10.3508 41.4792C10.3508 41.4792 10.232 41.3547 10.0094 41.1209C9.89806 41.004 9.7605 40.8604 9.59918 40.6902C9.51914 40.6038 9.4291 40.5174 9.34156 40.4145C9.25402 40.3129 9.16023 40.2049 9.06269 40.0905C8.86761 39.8606 8.64376 39.6128 8.41491 39.3308C8.19106 39.0436 7.9497 38.7336 7.69084 38.402C7.44198 38.0628 7.18937 37.6931 6.9155 37.3081C6.84547 37.2128 6.78294 37.1112 6.71917 37.0083C6.65414 36.9054 6.58911 36.8025 6.52283 36.697C6.39027 36.4874 6.25521 36.2714 6.11765 36.0529C5.9901 35.8267 5.86004 35.5968 5.72748 35.3605C5.6612 35.2423 5.59492 35.1241 5.5274 35.0047C5.49363 34.945 5.45987 34.884 5.4261 34.8243C5.39484 34.7621 5.36357 34.6998 5.33231 34.6376C5.0847 34.1357 4.81083 33.625 4.58073 33.0748C4.46193 32.8017 4.33437 32.5285 4.21932 32.2439C4.10928 31.9581 3.99798 31.6697 3.88543 31.3775C3.83165 31.2301 3.76788 31.0865 3.72161 30.9353C3.67283 30.7854 3.62281 30.6342 3.57279 30.4818C3.52277 30.3293 3.47275 30.1768 3.42272 30.0244C3.3727 29.8706 3.32018 29.7182 3.28016 29.5594C3.19387 29.2456 3.10634 28.9292 3.0188 28.6103C2.99754 28.5303 2.97253 28.4515 2.95502 28.3702L2.9 28.1262C2.86373 27.9636 2.82746 27.801 2.7912 27.6371C2.75493 27.4732 2.71742 27.3093 2.68115 27.1454C2.64363 26.9815 2.62112 26.8126 2.58986 26.6461C2.53359 26.312 2.47106 25.9766 2.41728 25.6386C2.22595 24.283 2.12591 22.8905 2.1109 21.5019C2.12591 20.1107 2.22595 18.7208 2.41728 17.3651C2.47106 17.0272 2.53234 16.6918 2.58986 16.3576C2.62112 16.1912 2.64363 16.0235 2.68115 15.8583C2.71742 15.6932 2.75493 15.5293 2.7912 15.3666C2.82746 15.2027 2.86373 15.0401 2.9 14.8775L2.95502 14.6336C2.97378 14.5522 2.99754 14.4735 3.0188 14.3934C3.10634 14.0745 3.19387 13.7582 3.28016 13.4444C3.32018 13.2868 3.37145 13.1331 3.42272 12.9794C3.47275 12.8256 3.52277 12.6732 3.57279 12.522C3.67158 12.2183 3.76663 11.916 3.88543 11.6263C3.99798 11.3341 4.10928 11.0457 4.21932 10.7598C4.33312 10.4765 4.46193 10.2033 4.58073 9.92891C4.80958 9.37878 5.0847 8.86804 5.33231 8.36619C5.36357 8.30394 5.39484 8.24169 5.4261 8.17943C5.45987 8.11845 5.49363 8.05873 5.5274 7.99902C5.59492 7.87959 5.6612 7.76017 5.72748 7.64328C5.86004 7.40824 5.9901 7.17701 6.11765 6.95086C6.25521 6.73106 6.39027 6.51635 6.52283 6.30672C6.58911 6.20127 6.65414 6.09836 6.71792 5.99545C6.78169 5.89253 6.84547 5.7909 6.9155 5.69561C7.18937 5.31065 7.44198 4.94093 7.69084 4.60171C7.9497 4.27011 8.19106 3.96011 8.41491 3.67298C8.64376 3.39092 8.86761 3.14318 9.06269 2.91322C9.16148 2.79887 9.25402 2.69088 9.34156 2.58924C9.4291 2.4876 9.51914 2.39994 9.59918 2.31354C9.7605 2.14457 9.89806 1.99973 10.0094 1.88284C10.232 1.64526 10.3508 1.52075 10.3508 1.52075Z" fill="white"/>
<path d="M11.844 3.03906C11.844 3.03906 11.7364 3.15595 11.5351 3.37574C11.435 3.48628 11.31 3.62095 11.1649 3.78103C11.0936 3.86235 11.0111 3.94366 10.9323 4.04021C10.8535 4.1355 10.7685 4.23714 10.6797 4.34386C10.5034 4.55858 10.3008 4.79108 10.0944 5.05534C9.8931 5.32342 9.67426 5.61309 9.44165 5.92309C9.21781 6.23945 8.99021 6.58375 8.74385 6.9433C8.50749 7.30794 8.27364 7.70306 8.02228 8.10835C7.90723 8.31798 7.78968 8.53142 7.66963 8.74868C7.6096 8.85794 7.54958 8.96721 7.4883 9.07774C7.45829 9.13364 7.42702 9.18954 7.39701 9.24544C7.3695 9.30262 7.34073 9.36106 7.31322 9.41823C7.09062 9.88323 6.84302 10.3546 6.63668 10.8628C6.53038 11.1156 6.41408 11.3672 6.31278 11.6289C6.21399 11.8919 6.1152 12.1587 6.0139 12.428C5.90761 12.6948 5.82382 12.9744 5.73253 13.2526C5.68751 13.3923 5.64249 13.5321 5.59622 13.6731C5.54995 13.8142 5.50368 13.9552 5.46741 14.1C5.38863 14.3884 5.30984 14.6794 5.23106 14.9728C5.2123 15.0465 5.18979 15.119 5.17353 15.1939L5.12476 15.4175C5.09225 15.5674 5.05848 15.7161 5.02597 15.8673C4.99346 16.0172 4.95969 16.1684 4.92593 16.3196C4.89216 16.4708 4.87215 16.6245 4.84339 16.7782C4.79212 17.0857 4.73709 17.3931 4.68832 17.7031C4.517 18.9482 4.42946 20.2238 4.41945 21.5007C4.42946 22.7801 4.517 24.0518 4.68832 25.2982C4.73709 25.6082 4.79212 25.9169 4.84339 26.2231C4.8709 26.3756 4.89216 26.5306 4.92468 26.6818C4.95844 26.8329 4.99095 26.9841 5.02472 27.1341C5.05723 27.284 5.091 27.4339 5.12351 27.5838C5.15603 27.7337 5.18854 27.8824 5.23106 28.0285C5.3111 28.322 5.38988 28.6129 5.46741 28.9013C5.50368 29.0462 5.5512 29.1872 5.59622 29.3282C5.64124 29.4692 5.68751 29.609 5.73253 29.7487C5.82382 30.0282 5.90761 30.3065 6.0139 30.5733C6.1152 30.8426 6.21399 31.1094 6.31278 31.3724C6.41533 31.6342 6.53038 31.887 6.63668 32.1385C6.84302 32.6467 7.09062 33.1181 7.31322 33.5831C7.34198 33.6415 7.3695 33.6987 7.39701 33.7559C7.42702 33.8118 7.45829 33.8677 7.4883 33.9236C7.54958 34.0341 7.6096 34.1447 7.66963 34.2527C7.78968 34.4699 7.90723 34.6834 8.02228 34.893C8.27364 35.2983 8.50749 35.6921 8.74385 36.058C8.98896 36.4163 9.21656 36.7619 9.44165 37.0782C9.67426 37.3882 9.8931 37.6779 10.0944 37.946C10.3008 38.2103 10.5034 38.4415 10.6797 38.6575C10.7685 38.7642 10.8535 38.8658 10.9323 38.9611C11.0111 39.0564 11.0924 39.139 11.1649 39.2203C11.3112 39.3791 11.435 39.5151 11.5351 39.6256C11.7364 39.8454 11.844 39.9635 11.844 39.9635C11.844 39.9635 11.7339 39.8492 11.5276 39.6332C11.425 39.5252 11.2975 39.3931 11.1474 39.2368C11.0736 39.158 10.9898 39.0767 10.9098 38.9827C10.8285 38.8887 10.7422 38.7883 10.6522 38.6829C10.4721 38.4707 10.2645 38.242 10.0544 37.9803C9.84808 37.7148 9.62423 37.4289 9.38538 37.1214C9.15528 36.8089 8.92143 36.4659 8.66882 36.1101C8.60379 36.0225 8.54626 35.9272 8.48749 35.8332C8.42746 35.7379 8.36743 35.6426 8.30616 35.546C8.1836 35.3516 8.0598 35.1534 7.93224 34.9502C7.81469 34.7418 7.69464 34.5284 7.57083 34.3111C7.50956 34.2018 7.44828 34.0926 7.38575 33.982C7.35449 33.9261 7.32323 33.8715 7.29196 33.8143C7.2632 33.7572 7.23444 33.7 7.20567 33.6415C6.97682 33.1778 6.72296 32.7052 6.51162 32.197C6.04892 31.1971 5.66 30.0994 5.30984 28.9483C5.22981 28.6587 5.14977 28.3652 5.06849 28.0704C5.02472 27.9243 4.99221 27.7744 4.95969 27.6232C4.92593 27.4733 4.89216 27.3221 4.8584 27.1709C4.82463 27.0197 4.79087 26.8685 4.7571 26.7161C4.72334 26.5636 4.70208 26.4086 4.67332 26.2549C4.62079 25.9461 4.56327 25.6361 4.5145 25.3236C4.33692 24.0709 4.24438 22.7839 4.23187 21.5007C4.24563 20.2149 4.33817 18.9305 4.51575 17.6777C4.56577 17.3652 4.62204 17.0552 4.67457 16.7465C4.70333 16.5927 4.72459 16.4377 4.75835 16.2853C4.79212 16.1328 4.82588 15.9816 4.85965 15.8304C4.89341 15.6792 4.92718 15.5281 4.96094 15.3781L5.01096 15.1533C5.02722 15.0783 5.05098 15.0059 5.06974 14.9309C5.15103 14.6362 5.23106 14.344 5.3111 14.053C5.34861 13.9069 5.39613 13.7646 5.4424 13.6236C5.48867 13.4813 5.53494 13.3403 5.58121 13.2005C5.6725 12.9197 5.76004 12.6402 5.87009 12.3721C5.97389 12.1028 6.07643 11.8347 6.17898 11.5717C6.28402 11.31 6.40407 11.0572 6.51287 10.8043C6.72421 10.2961 6.97933 9.82352 7.20693 9.35979C7.23569 9.30135 7.26445 9.24417 7.29321 9.187C7.32448 9.1311 7.35574 9.0752 7.387 9.0193C7.44953 8.90876 7.51081 8.79823 7.57209 8.69024C7.69464 8.47298 7.81469 8.25954 7.93224 8.05118C8.0598 7.8479 8.18485 7.6497 8.30616 7.45531C8.42996 7.2622 8.54251 7.06781 8.66882 6.88994C8.92143 6.5342 9.15528 6.19244 9.38538 5.87863C9.62423 5.57244 9.84808 5.2853 10.0544 5.01977C10.2658 4.75805 10.4734 4.52936 10.6534 4.31718C10.7447 4.21173 10.8298 4.11136 10.911 4.01735C10.9911 3.92333 11.0761 3.84202 11.1487 3.76325C11.2975 3.60698 11.425 3.47484 11.5276 3.36685C11.7339 3.15341 11.844 3.03906 11.844 3.03906Z" fill="white"/>
<path d="M13.3396 4.55981C13.3396 4.55981 13.2408 4.66781 13.057 4.86982C12.9644 4.97146 12.8506 5.09596 12.7168 5.24207C12.6505 5.31576 12.5755 5.39199 12.5042 5.47966C12.4317 5.56732 12.3542 5.66007 12.2729 5.75789C12.1116 5.95609 11.9252 6.16826 11.7364 6.41093C11.5513 6.65741 11.3512 6.92294 11.1374 7.20753C10.9323 7.49721 10.7234 7.81483 10.4983 8.14389C10.282 8.4793 10.0682 8.84012 9.83681 9.21238C9.73051 9.40422 9.62296 9.59988 9.51291 9.79935C9.45789 9.89972 9.40286 10.0001 9.34659 10.1017C9.31908 10.1525 9.29032 10.2034 9.2628 10.2555C9.23654 10.3075 9.21153 10.3609 9.18527 10.4143C8.98143 10.8399 8.75383 11.2731 8.565 11.7394C8.46745 11.9706 8.36116 12.2031 8.26737 12.4433C8.17733 12.6846 8.08604 12.9299 7.9935 13.1763C7.89595 13.4215 7.81967 13.6769 7.73588 13.9335C7.69462 14.0619 7.65335 14.1902 7.61083 14.3198C7.56831 14.4494 7.52579 14.579 7.49203 14.7111C7.42075 14.9754 7.34821 15.2422 7.27443 15.5115C7.23567 15.6449 7.20565 15.7821 7.17564 15.9193C7.14563 16.0565 7.11561 16.1938 7.08435 16.3322C7.05434 16.4707 7.02307 16.6079 6.99306 16.7477C6.9618 16.8862 6.94304 17.0272 6.91803 17.1682C6.87051 17.4503 6.82048 17.7323 6.77546 18.0169C6.6179 19.1591 6.53786 20.3292 6.52911 21.5006C6.53786 22.6746 6.6179 23.8409 6.77546 24.9843C6.81923 25.2689 6.87051 25.551 6.91803 25.833C6.94304 25.9741 6.9618 26.1151 6.99306 26.2536C7.02307 26.392 7.05434 26.5305 7.08435 26.669C7.11436 26.8075 7.14438 26.9447 7.17564 27.0819C7.20565 27.2191 7.23441 27.3564 7.27318 27.4898C7.34571 27.7591 7.41825 28.0259 7.49078 28.2902C7.52454 28.4236 7.56706 28.5532 7.60958 28.6815C7.65085 28.8111 7.69337 28.9394 7.73463 29.0677C7.81842 29.3244 7.89595 29.5797 7.99225 29.8249C8.08479 30.0727 8.17608 30.3166 8.26612 30.558C8.35991 30.7981 8.4662 31.0294 8.56375 31.2619C8.75258 31.7281 8.97893 32.1614 9.18402 32.587C9.21028 32.6404 9.23529 32.6924 9.26155 32.7458C9.28906 32.7966 9.31783 32.8487 9.34534 32.8995C9.40161 33.0012 9.45664 33.1015 9.51166 33.2019C9.62171 33.4014 9.72926 33.597 9.83555 33.7889C10.0669 34.1611 10.2807 34.522 10.4971 34.8574C10.7222 35.1864 10.931 35.5028 11.1361 35.7937C11.35 36.0783 11.5501 36.3439 11.7351 36.5903C11.924 36.833 12.1103 37.0452 12.2716 37.2434C12.3529 37.3412 12.4304 37.4339 12.503 37.5216C12.5755 37.6093 12.6505 37.6855 12.7156 37.7592C12.8494 37.9053 12.9632 38.0298 13.0557 38.1314C13.2408 38.3335 13.3383 38.4414 13.3383 38.4414C13.3383 38.4414 13.237 38.336 13.0482 38.1391C12.9532 38.04 12.8369 37.918 12.6993 37.7757C12.6318 37.7033 12.5542 37.6296 12.4805 37.5432C12.4067 37.4568 12.3266 37.3653 12.2441 37.2688C12.079 37.0744 11.889 36.8635 11.6939 36.6246C11.5038 36.382 11.2987 36.119 11.0798 35.8369C10.8685 35.5498 10.6534 35.236 10.4221 34.9095C10.3058 34.7468 10.2032 34.5677 10.0894 34.3911C9.97687 34.2132 9.86307 34.0303 9.74551 33.8448C9.63672 33.6529 9.52667 33.4573 9.41412 33.2578C9.35784 33.1574 9.30157 33.0571 9.24404 32.9554C9.21528 32.9046 9.18652 32.8538 9.15776 32.8017C9.1315 32.7496 9.10523 32.6963 9.07772 32.6429C8.86763 32.2173 8.63503 31.784 8.43994 31.3178C8.01476 30.4005 7.65835 29.393 7.33696 28.3359C7.26318 28.0691 7.1894 27.801 7.11561 27.5304C7.0756 27.3957 7.04558 27.2585 7.01557 27.12C6.98431 26.9816 6.95429 26.8443 6.92303 26.7046C6.89177 26.5661 6.8605 26.4263 6.82924 26.2866C6.79797 26.1468 6.77797 26.0045 6.7517 25.8635C6.70293 25.5802 6.65041 25.2956 6.60539 25.0085C6.44282 23.8587 6.35778 22.6771 6.34528 21.4994C6.35778 20.3191 6.44282 19.14 6.60539 17.9902C6.65166 17.7031 6.70293 17.4198 6.7517 17.1352C6.77797 16.9942 6.79672 16.8519 6.82924 16.7121C6.8605 16.5724 6.89177 16.4339 6.92303 16.2941C6.95429 16.1556 6.98556 16.0172 7.01557 15.8787C7.04558 15.7402 7.07685 15.603 7.11561 15.4683C7.1894 15.1977 7.26318 14.9296 7.33696 14.6628C7.65835 13.607 8.01601 12.5983 8.44119 11.681C8.63628 11.2147 8.86888 10.7814 9.07897 10.3558C9.10523 10.3025 9.1315 10.2504 9.15901 10.197C9.18777 10.1462 9.21653 10.0941 9.2453 10.0433C9.30282 9.94164 9.3591 9.84127 9.41537 9.7409C9.52792 9.54144 9.63797 9.34578 9.74677 9.15393C9.86432 8.96717 9.97812 8.78549 10.0907 8.60762C10.2045 8.43102 10.307 8.25188 10.4246 8.08926C10.6572 7.76274 10.871 7.44893 11.0824 7.16179C11.3012 6.88101 11.5063 6.61802 11.6964 6.37409C11.8902 6.13396 12.0803 5.92433 12.2466 5.72994C12.3304 5.63338 12.4092 5.54191 12.483 5.45552C12.5567 5.36912 12.6343 5.29543 12.7018 5.22301C12.8394 5.07945 12.9557 4.95875 13.0507 4.85965C13.2383 4.66527 13.3396 4.55981 13.3396 4.55981Z" fill="white"/>
<path d="M14.8352 6.08057C14.8352 6.08057 14.7452 6.17839 14.5776 6.36262C14.4939 6.45409 14.3901 6.56844 14.2688 6.70184C14.2087 6.76918 14.1399 6.83905 14.0749 6.9191C14.0086 6.99914 13.9386 7.08299 13.8648 7.17319C13.7173 7.35361 13.5484 7.54672 13.3771 7.76779C13.2095 7.9914 13.027 8.23406 12.8331 8.49324C12.6455 8.75751 12.4567 9.04591 12.2516 9.34575C12.0553 9.65067 11.8602 9.97973 11.6501 10.3189C11.5538 10.4943 11.4563 10.6721 11.3562 10.8538C11.3062 10.9453 11.2562 11.0368 11.2049 11.1295C11.1799 11.1753 11.1549 11.2223 11.1286 11.2693C11.1049 11.3176 11.0824 11.3658 11.0586 11.4141C10.8735 11.8016 10.6659 12.1955 10.4946 12.6211C10.4058 12.832 10.3095 13.0429 10.2245 13.2614C10.1419 13.4812 10.0594 13.7036 9.97562 13.9284C9.88683 14.152 9.8168 14.3845 9.74177 14.617C9.70426 14.7339 9.66674 14.8508 9.62797 14.969C9.5892 15.0871 9.55044 15.204 9.52042 15.326C9.4554 15.5674 9.38912 15.81 9.32284 16.054C9.28782 16.1759 9.26031 16.3005 9.23405 16.425C9.20654 16.5495 9.17903 16.6753 9.15151 16.7998C9.124 16.9255 9.09649 17.0513 9.06898 17.1771C9.04146 17.3029 9.02396 17.4325 9.0002 17.5595C8.95768 17.8162 8.91141 18.0728 8.87139 18.332C8.72883 19.37 8.6563 20.4385 8.64879 21.4993C8.65755 22.5729 8.72883 23.63 8.87139 24.6718C8.91141 24.931 8.95768 25.1876 9.0002 25.4442C9.02396 25.5726 9.04021 25.7009 9.06898 25.8267C9.09649 25.9524 9.124 26.0782 9.15151 26.204C9.17903 26.3298 9.20654 26.4543 9.23405 26.5788C9.26031 26.7033 9.28782 26.8278 9.32284 26.9498C9.38912 27.195 9.4554 27.4376 9.52042 27.6778C9.55044 27.7985 9.59046 27.9166 9.62797 28.0348C9.66549 28.1529 9.70426 28.2698 9.74177 28.3867C9.81806 28.6192 9.88809 28.8517 9.97562 29.0753C10.0594 29.3002 10.1419 29.5225 10.2245 29.7423C10.3095 29.9609 10.4058 30.1718 10.4946 30.3827C10.6659 30.807 10.8723 31.2009 11.0586 31.5896C11.0824 31.6379 11.1061 31.6862 11.1286 31.7345C11.1536 31.7815 11.1799 31.8272 11.2049 31.8742C11.2562 31.967 11.3062 32.0584 11.3562 32.1499C11.4563 32.3316 11.5538 32.5095 11.6501 32.6848C11.8602 33.024 12.054 33.3531 12.2516 33.658C12.4567 33.9578 12.6455 34.2462 12.8331 34.5105C13.027 34.7697 13.2095 35.0124 13.3771 35.236C13.5497 35.457 13.7185 35.6514 13.8648 35.8306C13.9386 35.9195 14.0099 36.0046 14.0749 36.0847C14.1399 36.1647 14.2087 36.2333 14.2688 36.3019C14.3901 36.4353 14.4939 36.5484 14.5776 36.6411C14.7452 36.8254 14.8352 36.9232 14.8352 36.9232C14.8352 36.9232 14.7427 36.8279 14.5701 36.6475C14.4838 36.5573 14.3776 36.4467 14.2525 36.3172C14.1912 36.2511 14.1199 36.1838 14.0537 36.105C13.9861 36.0262 13.9136 35.9436 13.8373 35.856C13.686 35.6781 13.5134 35.4875 13.3358 35.2703C13.1633 35.0492 12.9757 34.8103 12.7756 34.5537C12.583 34.292 12.3867 34.0074 12.1753 33.7101C11.9715 33.4077 11.7739 33.0787 11.5588 32.7407C11.46 32.5666 11.36 32.3888 11.2562 32.2071C11.2049 32.1169 11.1536 32.0241 11.1011 31.9327C11.0749 31.8869 11.0486 31.8399 11.0223 31.7929C10.9986 31.7446 10.9736 31.6964 10.9498 31.6481C10.7585 31.2606 10.5459 30.8667 10.3683 30.4411C9.98063 29.6064 9.65548 28.6878 9.36286 27.726C9.29658 27.4834 9.22905 27.2394 9.16152 26.993C9.12525 26.871 9.09774 26.7452 9.07023 26.6194C9.04272 26.4937 9.01395 26.3679 8.98519 26.2421C8.95643 26.1163 8.92892 25.9893 8.90015 25.8622C8.87139 25.7352 8.85388 25.6056 8.83012 25.4773C8.78635 25.2194 8.73883 24.9602 8.69757 24.6997C8.55 23.6541 8.47122 22.5729 8.45996 21.507C8.47122 20.427 8.54875 19.3573 8.69757 18.3091C8.73883 18.0487 8.78635 17.7895 8.83012 17.5316C8.85388 17.4032 8.87139 17.2737 8.90015 17.1466C8.92892 17.0196 8.95643 16.8925 8.98519 16.7667C9.01395 16.6409 9.04147 16.5139 9.07023 16.3894C9.09774 16.2636 9.12525 16.1391 9.16152 16.0159C9.22905 15.7694 9.29658 15.5255 9.36286 15.2828C9.65548 14.321 9.98188 13.4037 10.3683 12.5677C10.5459 12.1434 10.7585 11.7495 10.9498 11.3608C10.9736 11.3125 10.9986 11.2642 11.0223 11.2159C11.0486 11.1689 11.0749 11.1232 11.1011 11.0762C11.1536 10.9834 11.2049 10.8919 11.2562 10.8017C11.3587 10.6201 11.46 10.4422 11.5588 10.2681C11.7739 9.93018 11.9715 9.60112 12.1766 9.29874C12.3879 9.00144 12.583 8.71685 12.7768 8.45513C12.9769 8.19976 13.1645 7.95963 13.3371 7.73857C13.5134 7.52004 13.6872 7.32947 13.8386 7.15287C13.9148 7.0652 13.9861 6.98135 14.0549 6.90258C14.1224 6.82381 14.1925 6.75647 14.2537 6.69041C14.3788 6.56081 14.4851 6.44901 14.5714 6.36008C14.744 6.17585 14.8352 6.08057 14.8352 6.08057Z" fill="white"/>
<path d="M16.3309 7.60132C16.3309 7.60132 16.2509 7.69025 16.0996 7.85669C16.0245 7.93927 15.9307 8.04218 15.8219 8.16288C15.7094 8.28103 15.5906 8.42587 15.458 8.58722C15.3255 8.74985 15.1742 8.92391 15.0191 9.12337C14.8678 9.32538 14.704 9.54391 14.5289 9.77768C14.3601 10.0165 14.19 10.2757 14.0061 10.5463C13.8286 10.822 13.6535 11.1181 13.4647 11.423C13.3784 11.5805 13.2896 11.7419 13.1995 11.9058C13.1545 11.9883 13.1095 12.0709 13.0632 12.1535C13.0407 12.1954 13.0182 12.2374 12.9945 12.2793C12.9732 12.3225 12.9519 12.3657 12.9307 12.4089C12.7631 12.7583 12.578 13.114 12.423 13.4964C12.3429 13.687 12.2566 13.8763 12.1803 14.0732C12.1066 14.2714 12.0315 14.4722 11.9565 14.6742C11.8765 14.8749 11.8139 15.0845 11.7452 15.2955C11.7114 15.4009 11.6776 15.5064 11.6426 15.6118C11.6076 15.7173 11.5726 15.824 11.5451 15.9332C11.4863 16.1505 11.4275 16.369 11.3675 16.5901C11.335 16.6994 11.3112 16.8124 11.2875 16.9242C11.2624 17.036 11.2387 17.1491 11.2137 17.2622C11.1887 17.3753 11.1637 17.4883 11.1386 17.6027C11.1136 17.7157 11.0986 17.8326 11.0774 17.947C11.0386 18.1782 10.9973 18.4094 10.9611 18.6432C10.8323 19.5796 10.7672 20.5388 10.761 21.4993C10.7685 22.4623 10.8335 23.4177 10.9611 24.3554C10.9973 24.5891 11.0386 24.8204 11.0774 25.0516C11.0986 25.1672 11.1136 25.2828 11.1386 25.3959C11.1637 25.5103 11.1887 25.6233 11.2137 25.7364C11.2387 25.8495 11.2637 25.9625 11.2875 26.0744C11.3112 26.1874 11.3362 26.2992 11.3675 26.4085C11.4275 26.6296 11.4863 26.8481 11.5451 27.0653C11.5726 27.1746 11.6076 27.2813 11.6426 27.3868C11.6764 27.4922 11.7114 27.5989 11.7452 27.7031C11.8139 27.9128 11.8765 28.1224 11.9565 28.3244C12.0315 28.5277 12.1066 28.7284 12.1803 28.9266C12.2566 29.1235 12.3442 29.3141 12.423 29.5034C12.5768 29.8858 12.7631 30.2416 12.9294 30.591C12.9507 30.6342 12.9719 30.6774 12.9932 30.7206C13.0157 30.7625 13.0395 30.8044 13.062 30.8463C13.1083 30.9302 13.1533 31.0128 13.1983 31.0941C13.2883 31.258 13.3771 31.4193 13.4634 31.5769C13.6522 31.8818 13.8273 32.1791 14.0049 32.4535C14.1887 32.7241 14.3588 32.9846 14.5276 33.2222C14.7027 33.4559 14.8665 33.6745 15.0178 33.8765C15.1729 34.0759 15.3255 34.2513 15.4568 34.4126C15.5893 34.574 15.7094 34.7188 15.8207 34.837C15.9295 34.9577 16.0233 35.0593 16.0983 35.1432C16.2496 35.3096 16.3297 35.3985 16.3297 35.3985C16.3297 35.3985 16.2471 35.3121 16.0908 35.1508C16.0133 35.0695 15.917 34.9704 15.8044 34.8535C15.7494 34.7938 15.6856 34.7341 15.6244 34.6629C15.5631 34.5918 15.498 34.5168 15.4293 34.438C15.293 34.278 15.1366 34.1064 14.9766 33.9108C14.8203 33.7113 14.6514 33.4953 14.4714 33.2654C14.2975 33.0303 14.1212 32.7724 13.9299 32.5056C13.746 32.2337 13.5672 31.9364 13.3734 31.6328C13.2846 31.4752 13.1933 31.3152 13.1008 31.1513C13.0545 31.0699 13.0082 30.9874 12.9607 30.9035C12.9369 30.8616 12.9132 30.8197 12.8894 30.7777C12.8681 30.7345 12.8456 30.6913 12.8244 30.6481C12.6518 30.2988 12.4592 29.943 12.2992 29.5606C11.949 28.8085 11.6551 27.9801 11.3913 27.1136C11.3312 26.8951 11.27 26.674 11.2087 26.453C11.1762 26.3424 11.1511 26.2294 11.1261 26.1163C11.1011 26.0032 11.0749 25.8889 11.0499 25.7758C11.0248 25.6614 10.9986 25.5471 10.9736 25.4327C10.9473 25.3184 10.9311 25.2015 10.9098 25.0846C10.8698 24.8521 10.8273 24.6184 10.7897 24.3833C10.6559 23.4393 10.5859 22.4674 10.5746 21.5018C10.5859 20.5324 10.6559 19.5643 10.7897 18.6203C10.8273 18.3853 10.8698 18.1515 10.9098 17.919C10.9311 17.8034 10.9473 17.6865 10.9736 17.5709C10.9998 17.4566 11.0248 17.3422 11.0499 17.2279C11.0749 17.1135 11.1011 17.0005 11.1261 16.8874C11.1511 16.7743 11.1762 16.6612 11.2087 16.5507C11.27 16.3284 11.33 16.1086 11.39 15.89C11.6539 15.0223 11.949 14.1952 12.2979 13.4431C12.458 13.0606 12.6506 12.7049 12.8231 12.3555C12.8456 12.3123 12.8669 12.2691 12.8882 12.2259C12.9119 12.184 12.9357 12.1421 12.9582 12.1001C13.0057 12.0163 13.052 11.9337 13.0982 11.8524C13.1908 11.6885 13.2821 11.5284 13.3709 11.3709C13.566 11.0672 13.7435 10.7699 13.9274 10.4981C14.1187 10.23 14.295 9.97334 14.4688 9.7383C14.6489 9.50833 14.8178 9.29235 14.9741 9.09288C15.1341 8.89723 15.2905 8.72444 15.4268 8.56436C15.4955 8.48558 15.5606 8.41062 15.6219 8.33948C15.6831 8.26833 15.7457 8.20862 15.8019 8.1489C15.9145 8.03202 16.0108 7.93165 16.0883 7.85161C16.2484 7.68771 16.3309 7.60132 16.3309 7.60132Z" fill="white"/>
<path d="M17.8266 9.12207C17.8266 9.12207 17.7553 9.20084 17.6202 9.34949C17.4889 9.49941 17.2826 9.70904 17.0487 10.0013C16.9312 10.1461 16.7961 10.3011 16.6586 10.479C16.5235 10.6594 16.3784 10.8538 16.2234 11.0621C16.0733 11.2743 15.922 11.5068 15.7582 11.7469C15.6006 11.9921 15.4443 12.2564 15.2767 12.5283C15.1992 12.668 15.1216 12.8116 15.0416 12.9577C14.9641 13.1051 14.8753 13.2499 14.804 13.4075C14.6552 13.7187 14.4901 14.0351 14.3526 14.3756C14.0524 15.0451 13.8048 15.7807 13.5735 16.5456C13.3496 17.3142 13.182 18.1261 13.0532 18.9583C12.9394 19.7917 12.8807 20.6455 12.8757 21.5005C12.8819 22.3581 12.9394 23.2081 13.0532 24.0428C13.1808 24.8737 13.3496 25.6855 13.5735 26.4555C13.6247 26.6486 13.6935 26.8353 13.751 27.0234C13.8123 27.2101 13.8686 27.3969 13.9386 27.576C14.0062 27.7565 14.0724 27.9356 14.1375 28.1122C14.2062 28.2875 14.2825 28.4565 14.3538 28.6255C14.4914 28.966 14.6564 29.2823 14.8053 29.5936C14.8765 29.7511 14.9653 29.896 15.0429 30.0433C15.1229 30.1895 15.2017 30.333 15.278 30.4728C15.4455 30.7447 15.6019 31.0089 15.7594 31.2541C15.9232 31.4955 16.0746 31.7268 16.2246 31.9389C16.3797 32.1473 16.526 32.3417 16.6598 32.5221C16.7974 32.7 16.9324 32.8562 17.05 33.0011C17.2826 33.2933 17.4889 33.5016 17.6202 33.6528C17.754 33.8015 17.8266 33.8803 17.8266 33.8803C17.8266 33.8803 17.7528 33.804 17.614 33.6605C17.544 33.588 17.4589 33.5004 17.3576 33.3962C17.3076 33.3428 17.2513 33.2895 17.1963 33.2272C17.1413 33.165 17.0838 33.0976 17.0225 33.0277C16.9012 32.8855 16.7611 32.733 16.6186 32.5577C16.4797 32.3798 16.3284 32.1879 16.1671 31.9834C16.012 31.7738 15.8545 31.5451 15.6831 31.3075C15.5193 31.0648 15.3592 30.8006 15.1854 30.5299C15.1054 30.3902 15.0254 30.2466 14.9416 30.1018C14.8615 29.9544 14.7702 29.8108 14.6952 29.6533C14.5414 29.342 14.3701 29.0257 14.2263 28.6852C13.9136 28.0144 13.651 27.2775 13.4146 26.505C13.1845 25.73 13.0107 24.9105 12.8769 24.072C12.7569 23.2309 12.6943 22.3645 12.6843 21.5043C12.6943 20.6404 12.7569 19.7777 12.8769 18.9367C13.0095 18.0981 13.1845 17.2787 13.4134 16.5037C13.6485 15.7312 13.9124 14.9943 14.225 14.3235C14.3688 13.983 14.5401 13.6666 14.694 13.3554C14.769 13.1978 14.8603 13.0543 14.9403 12.9069C15.0229 12.7608 15.1041 12.6185 15.1842 12.4787C15.358 12.2081 15.5168 11.9438 15.6819 11.7012C15.852 11.4636 16.0095 11.2349 16.1659 11.0253C16.3272 10.8207 16.4772 10.6289 16.6173 10.451C16.7599 10.277 16.8999 10.1232 17.0212 9.98093C17.0825 9.90978 17.14 9.84371 17.1951 9.78146C17.2488 9.71793 17.3064 9.66457 17.3551 9.61248C17.4564 9.5083 17.5415 9.41937 17.6115 9.34822C17.7528 9.1983 17.8266 9.12207 17.8266 9.12207Z" fill="white"/>
<path d="M51.1474 43C51.1474 43 51.2725 42.8641 51.5076 42.6087C51.6251 42.4816 51.7702 42.3241 51.9402 42.1386C52.024 42.0446 52.1203 41.9493 52.2116 41.8375C52.3042 41.727 52.4017 41.6088 52.5067 41.4843C52.6105 41.3598 52.7193 41.2289 52.8344 41.0917C52.8919 41.0231 52.9507 40.9532 53.0107 40.8808C53.0707 40.8097 53.132 40.736 53.1895 40.6572C53.4246 40.3447 53.6798 40.008 53.9511 39.6472C54.2125 39.2787 54.4776 38.8772 54.764 38.4592C54.8378 38.3563 54.9028 38.2445 54.9703 38.134C55.0379 38.0235 55.1079 37.9117 55.1767 37.7986C55.3167 37.5724 55.4593 37.3399 55.6044 37.1036C55.7394 36.8597 55.8757 36.6119 56.0158 36.3578C56.0858 36.2308 56.1558 36.1025 56.2271 35.9741C56.2621 35.9093 56.2984 35.8446 56.3334 35.7798C56.3659 35.7124 56.3984 35.6464 56.4322 35.579C56.6923 35.0378 56.9812 34.4889 57.2213 33.8969C57.3451 33.6034 57.4802 33.3086 57.6002 33.0037C57.7153 32.6975 57.8316 32.3863 57.9491 32.0724C58.0729 31.7612 58.1717 31.4359 58.2768 31.1107C58.3293 30.9481 58.3818 30.7842 58.4356 30.6203C58.4894 30.4564 58.5444 30.2912 58.5869 30.1222C58.6782 29.7855 58.7707 29.4463 58.8633 29.1058C58.8858 29.0207 58.912 28.9356 58.9308 28.8492L58.9883 28.5887C59.0271 28.4147 59.0646 28.2406 59.1034 28.0653C59.1421 27.89 59.1809 27.7146 59.2197 27.538C59.2597 27.3614 59.2822 27.1823 59.3147 27.0044C59.3747 26.6461 59.4398 26.2879 59.4961 25.9258C59.6961 24.4761 59.7987 22.9858 59.8099 21.5032C59.7974 20.0078 59.6961 18.5289 59.4961 17.0755C59.4398 16.7134 59.3747 16.3551 59.3147 15.9968C59.2822 15.819 59.2584 15.6386 59.2197 15.4632C59.1809 15.2866 59.1421 15.1113 59.1034 14.936C59.0646 14.7606 59.0258 14.5866 58.9883 14.4125L58.9308 14.1521C58.912 14.0657 58.8858 13.9806 58.8633 13.8954C58.7707 13.5537 58.6782 13.2144 58.5869 12.879C58.5444 12.7101 58.4894 12.5449 58.4356 12.381C58.3818 12.2171 58.3293 12.0532 58.2768 11.8906C58.1705 11.5653 58.0717 11.2414 57.9479 10.9288C57.8303 10.615 57.714 10.305 57.599 9.99755C57.4789 9.69263 57.3439 9.39914 57.2201 9.10439C56.98 8.51234 56.6911 7.96348 56.431 7.42225C56.3984 7.35491 56.3647 7.28758 56.3322 7.22151C56.2959 7.15671 56.2609 7.09192 56.2259 7.02712C56.1546 6.89753 56.0846 6.77048 56.0145 6.64343C55.8745 6.3906 55.7369 6.14159 55.6031 5.89765C55.4568 5.66134 55.3142 5.42884 55.1754 5.20269C55.1054 5.08961 55.0366 4.97781 54.9691 4.86601C54.9003 4.75547 54.8353 4.64494 54.7627 4.54076C54.4764 4.12277 54.2112 3.72129 53.9499 3.35284C53.6785 2.99202 53.4234 2.65534 53.1883 2.3428C53.1308 2.26403 53.0695 2.19034 53.0095 2.11919C52.9494 2.04677 52.8907 1.97689 52.8331 1.90829C52.7181 1.77107 52.6093 1.64021 52.5055 1.5157C52.4017 1.3912 52.3029 1.27304 52.2104 1.16251C52.1191 1.0507 52.0228 0.955414 51.939 0.861398C51.7689 0.675905 51.6239 0.518363 51.5063 0.391313C51.2737 0.135943 51.1474 0 51.1474 0C51.1474 0 51.275 0.134673 51.5138 0.386231C51.6339 0.512011 51.7814 0.667011 51.954 0.849963C52.039 0.942709 52.1366 1.03673 52.2304 1.14599C52.3242 1.25525 52.4242 1.37214 52.5305 1.49411C52.6368 1.61734 52.7481 1.74693 52.8644 1.88288C52.9232 1.95021 52.9832 2.02009 53.0432 2.09124C53.1045 2.16239 53.167 2.23481 53.2258 2.31231C53.4659 2.62104 53.726 2.95518 54.0049 3.31219C54.2725 3.67682 54.5439 4.07576 54.8378 4.48994C54.9128 4.59285 54.9803 4.70211 55.0491 4.81265C55.1179 4.92318 55.1879 5.03498 55.2592 5.14806C55.4018 5.37421 55.5468 5.60544 55.6944 5.84175C55.8319 6.08441 55.972 6.33343 56.1146 6.58626C56.1859 6.71331 56.2571 6.84036 56.3297 6.96995C56.3659 7.03475 56.4022 7.09954 56.4385 7.16434C56.4722 7.23167 56.506 7.29774 56.5385 7.36508C56.8036 7.90631 57.1 8.45516 57.3464 9.04721C57.4739 9.34197 57.6115 9.63545 57.734 9.94037C57.8516 10.2478 57.9716 10.5578 58.0929 10.8729C58.1517 11.0305 58.2192 11.1867 58.2693 11.3494C58.3218 11.5107 58.3756 11.6733 58.4293 11.8372C58.4831 12.0011 58.5369 12.165 58.5907 12.3302C58.6444 12.4953 58.7007 12.6605 58.7432 12.8308C58.8358 13.1687 58.9296 13.5092 59.0233 13.8522C59.0459 13.9386 59.0721 14.0238 59.0921 14.1101L59.1509 14.3719C59.1897 14.5472 59.2297 14.7225 59.2685 14.8979C59.3072 15.0745 59.3472 15.2498 59.3873 15.4277C59.4273 15.6043 59.4523 15.7847 59.4848 15.9651C59.5461 16.3246 59.6124 16.6854 59.6699 17.0488C59.875 18.5061 59.9825 20.0078 59.9988 21.4968C59.9838 22.9986 59.8762 24.4901 59.6699 25.9499C59.6124 26.3133 59.5461 26.6741 59.4848 27.0337C59.451 27.2128 59.4273 27.3932 59.3873 27.5711C59.3472 27.7477 59.3085 27.9243 59.2685 28.1009C59.2297 28.2775 59.1897 28.4528 59.1509 28.6269L59.0921 28.8886C59.0721 28.9762 59.0459 29.0614 59.0233 29.1465C58.9296 29.4895 58.8358 29.83 58.7432 30.168C58.7007 30.3382 58.6444 30.5034 58.5907 30.6685C58.5369 30.8337 58.4831 30.9976 58.4293 31.1615C58.323 31.488 58.2205 31.8133 58.0929 32.1258C57.9716 32.4396 57.8528 32.7509 57.734 33.0584C57.6115 33.3633 57.4727 33.658 57.3464 33.9515C57.1 34.5436 56.8049 35.0937 56.5385 35.6337C56.5047 35.701 56.471 35.7683 56.4385 35.8344C56.4022 35.8992 56.3659 35.964 56.3297 36.0288C56.2571 36.1584 56.1859 36.2854 56.1146 36.4125C55.972 36.6653 55.8319 36.9143 55.6944 37.157C55.5456 37.3933 55.4005 37.6245 55.2592 37.8507C55.1879 37.9637 55.1179 38.0755 55.0491 38.1861C54.9803 38.2966 54.9128 38.4059 54.8378 38.5088C54.5439 38.923 54.2725 39.3219 54.0049 39.6865C53.7273 40.0435 53.4672 40.3777 53.2271 40.6864C53.1683 40.7652 53.1058 40.8376 53.0445 40.9088C52.9832 40.9799 52.9232 41.0498 52.8644 41.1171C52.7481 41.2531 52.6356 41.3827 52.5305 41.5059C52.4242 41.6291 52.3242 41.7447 52.2304 41.854C52.1366 41.9645 52.039 42.0586 51.954 42.15C51.7802 42.333 51.6326 42.488 51.5138 42.6138C51.275 42.8666 51.1474 43 51.1474 43Z" fill="white"/>
<path d="M49.6517 41.4792C49.6517 41.4792 49.768 41.3521 49.9869 41.1158C50.0957 40.9977 50.2307 40.8503 50.3896 40.6788C50.4671 40.5911 50.5571 40.5022 50.6422 40.3993C50.7285 40.2963 50.8197 40.1871 50.916 40.0715C51.1074 39.839 51.3262 39.5874 51.5501 39.3015C51.7689 39.0119 52.0053 38.6981 52.2579 38.3627C52.5005 38.0209 52.7468 37.6474 53.0132 37.2586C53.2696 36.8635 53.5222 36.4366 53.7948 35.9983C53.9199 35.7721 54.0474 35.5409 54.1775 35.3058C54.2425 35.1877 54.3075 35.0695 54.3738 34.9488C54.4063 34.8891 54.4401 34.8281 54.4726 34.7684C54.5026 34.7062 54.5339 34.6439 54.5639 34.5816C54.8052 34.0785 55.0741 33.5691 55.2967 33.0189C55.4118 32.7458 55.5368 32.4726 55.6481 32.1893C55.7544 31.9047 55.8632 31.6163 55.972 31.3241C56.087 31.0344 56.1783 30.7333 56.2771 30.4309C56.3259 30.2797 56.3747 30.1273 56.4247 29.9748C56.4747 29.8224 56.526 29.6699 56.5648 29.5124C56.6498 29.1998 56.7348 28.8847 56.8211 28.5671C56.8424 28.4871 56.8661 28.4083 56.8836 28.3283L56.9374 28.0856C56.9724 27.9242 57.0087 27.7616 57.045 27.599C57.0812 27.4364 57.1162 27.2725 57.1525 27.1098C57.1888 26.946 57.2113 26.7795 57.2413 26.6131C57.2963 26.2802 57.3564 25.9473 57.4089 25.6119C57.5952 24.2639 57.689 22.8829 57.7003 21.5006C57.689 20.1158 57.5952 18.7385 57.4089 17.3893C57.3564 17.0539 57.2963 16.7197 57.2413 16.3881C57.2113 16.223 57.1888 16.0552 57.1525 15.8914C57.1162 15.7275 57.08 15.5648 57.045 15.4022C57.0087 15.2396 56.9737 15.077 56.9374 14.9156L56.8836 14.6729C56.8661 14.5929 56.8411 14.5141 56.8211 14.4341C56.7348 14.1165 56.6498 13.8014 56.5648 13.4888C56.526 13.3313 56.4747 13.1788 56.4247 13.0264C56.3759 12.8739 56.3259 12.7215 56.2771 12.5703C56.1783 12.2679 56.087 11.9668 55.972 11.6771C55.8632 11.3849 55.7544 11.0965 55.6481 10.8119C55.5368 10.5286 55.4118 10.2554 55.2967 9.98227C55.0741 9.43214 54.8052 8.9214 54.5639 8.41955C54.5339 8.3573 54.5026 8.29505 54.4726 8.23279C54.4401 8.17181 54.4063 8.11209 54.3738 8.05238C54.3075 7.93295 54.2425 7.81353 54.1775 7.69537C54.0474 7.46033 53.9199 7.2291 53.7948 7.00295C53.5222 6.56463 53.2696 6.13774 53.0132 5.74262C52.7468 5.35384 52.5017 4.98032 52.2579 4.63855C52.0053 4.30314 51.7689 3.98933 51.5513 3.69966C51.3275 3.41379 51.1086 3.16224 50.9173 2.92973C50.821 2.81412 50.7297 2.70486 50.6434 2.60195C50.5584 2.49776 50.4696 2.4101 50.3908 2.32244C50.232 2.15092 50.0982 2.00354 49.9881 1.88538C49.7693 1.6478 49.653 1.52075 49.653 1.52075C49.653 1.52075 49.7718 1.64526 49.9944 1.87903C50.1057 1.99592 50.2432 2.13948 50.4046 2.30973C50.4846 2.39613 50.5746 2.48252 50.6622 2.58543C50.7497 2.68707 50.8435 2.79506 50.941 2.90941C51.1361 3.13937 51.36 3.38711 51.5888 3.66916C51.8127 3.9563 52.054 4.2663 52.3129 4.5979C52.5618 4.93712 52.8144 5.30684 53.0882 5.6918C53.1583 5.78708 53.2208 5.88872 53.2846 5.99163C53.3496 6.09454 53.4146 6.19745 53.4797 6.30291C53.6122 6.51254 53.7473 6.72852 53.8848 6.94705C54.0124 7.1732 54.1424 7.40316 54.275 7.63947C54.3413 7.75763 54.4076 7.87578 54.4751 7.99521C54.5089 8.05492 54.5426 8.11591 54.5764 8.17562C54.6077 8.23787 54.6389 8.30013 54.6702 8.36238C54.9178 8.86423 55.1917 9.37497 55.4218 9.9251C55.5406 10.1983 55.6681 10.4714 55.7832 10.756C55.8932 11.0419 56.0045 11.3303 56.1171 11.6225C56.1708 11.7699 56.2346 11.9134 56.2809 12.0646C56.3297 12.2145 56.3797 12.3657 56.4297 12.5182C56.4797 12.6706 56.5297 12.8231 56.5798 12.9756C56.6298 13.1293 56.6823 13.283 56.7223 13.4406C56.8086 13.7544 56.8949 14.0707 56.9824 14.3896C57.0037 14.4697 57.0287 14.5484 57.0462 14.6297L57.1 14.8737C57.1363 15.0363 57.1725 15.1989 57.2088 15.3628C57.2451 15.5267 57.2826 15.6906 57.3188 15.8545C57.3564 16.0184 57.3789 16.1874 57.4101 16.3538C57.4664 16.688 57.5289 17.0234 57.5827 17.3613C57.774 18.7169 57.8741 20.1094 57.8878 21.4981C57.8728 22.8893 57.7728 24.2792 57.5827 25.6348C57.5289 25.9728 57.4677 26.3082 57.4101 26.6423C57.3789 26.8087 57.3564 26.9764 57.3188 27.1416C57.2826 27.3068 57.2451 27.4707 57.2088 27.6333C57.1725 27.7972 57.1363 27.9598 57.1 28.1224L57.0462 28.3664C57.0287 28.4477 57.0037 28.5265 56.9824 28.6065C56.8949 28.9254 56.8086 29.2417 56.7223 29.5556C56.6823 29.7131 56.631 29.8668 56.5798 30.0206C56.5297 30.1743 56.4797 30.3267 56.4297 30.4779C56.3309 30.7816 56.2359 31.084 56.1171 31.3736C56.0045 31.6659 55.8932 31.9543 55.7832 32.2401C55.6694 32.5234 55.5406 32.7966 55.4218 33.071C55.1929 33.6212 54.9178 34.1319 54.6714 34.635C54.6402 34.6973 54.6089 34.7595 54.5776 34.8218C54.5439 34.8828 54.5101 34.9425 54.4763 35.0022C54.4088 35.1216 54.3425 35.241 54.2763 35.3579C54.1437 35.593 54.0136 35.8242 53.8861 36.0503C53.7485 36.2701 53.6135 36.4849 53.4809 36.6945C53.4146 36.7999 53.3496 36.9028 53.2858 37.0058C53.222 37.1087 53.1583 37.2103 53.0895 37.3056C52.8156 37.6906 52.563 38.0603 52.3141 38.3995C52.0553 38.7311 51.8139 39.0411 51.5901 39.3282C51.3612 39.6103 51.1374 39.858 50.9423 40.088C50.8435 40.2023 50.751 40.3103 50.6634 40.412C50.5759 40.5136 50.4858 40.6013 50.4058 40.6877C50.2445 40.8566 50.1069 41.0015 49.9956 41.1184C49.7705 41.3547 49.6517 41.4792 49.6517 41.4792Z" fill="white"/>
<path d="M48.1561 39.9622C48.1561 39.9622 48.2636 39.8453 48.465 39.6255C48.565 39.515 48.6901 39.3803 48.8351 39.2202C48.9064 39.1389 48.9889 39.0576 49.0677 38.9611C49.1465 38.8658 49.2315 38.7641 49.3203 38.6574C49.4967 38.4427 49.6992 38.2102 49.9056 37.9459C50.1069 37.6779 50.3258 37.3882 50.5584 37.0782C50.7835 36.7618 51.0098 36.4175 51.2562 36.058C51.4925 35.6933 51.7264 35.2995 51.9777 34.8929C52.0928 34.6833 52.2103 34.4699 52.3304 34.2526C52.3904 34.1433 52.4504 34.0341 52.5117 33.9235C52.5417 33.8676 52.573 33.8117 52.603 33.7558C52.6305 33.6987 52.6593 33.6402 52.6881 33.583C52.9106 33.118 53.1595 32.6467 53.3646 32.1385C53.4709 31.8857 53.5872 31.6341 53.6885 31.3724C53.7873 31.1094 53.8861 30.8426 53.9874 30.5732C54.0937 30.3064 54.1775 30.0269 54.2687 29.7487C54.3138 29.6089 54.3588 29.4692 54.405 29.3282C54.4513 29.1871 54.4976 29.0461 54.5351 28.9013C54.6139 28.6129 54.6927 28.3219 54.7715 28.0284C54.7902 27.9547 54.8127 27.8823 54.829 27.8074L54.8778 27.5838C54.9103 27.4338 54.944 27.2839 54.9765 27.134C55.0091 26.9841 55.0428 26.8329 55.0766 26.6817C55.1104 26.5305 55.1304 26.3768 55.1591 26.2231C55.2104 25.9156 55.2654 25.6081 55.3142 25.2981C55.4855 24.053 55.5731 22.7775 55.5831 21.5006C55.5731 20.2212 55.4855 18.9495 55.3142 17.7031C55.2654 17.3931 55.2104 17.0844 55.1591 16.7782C55.1316 16.6244 55.1104 16.4707 55.0778 16.3195C55.0441 16.1683 55.0116 16.0171 54.9778 15.8672C54.9453 15.7173 54.9115 15.5674 54.879 15.4175C54.8465 15.2676 54.814 15.1189 54.7715 14.9728C54.6914 14.6793 54.6126 14.3884 54.5351 14.1C54.4988 13.9551 54.4513 13.8141 54.4063 13.6731C54.36 13.5321 54.315 13.3923 54.27 13.2525C54.1787 12.973 54.0949 12.6948 53.9886 12.428C53.8873 12.1586 53.7885 11.8918 53.6897 11.6288C53.5872 11.3671 53.4709 11.1143 53.3658 10.8627C53.1595 10.3545 52.9119 9.88318 52.6893 9.41818C52.6605 9.35974 52.633 9.30257 52.6043 9.24539C52.5742 9.18949 52.543 9.13359 52.513 9.07769C52.4517 8.96715 52.3917 8.85662 52.3316 8.74863C52.2116 8.53137 52.094 8.31793 51.979 8.1083C51.7276 7.70301 51.4938 7.30916 51.2574 6.94452C51.0111 6.58624 50.7847 6.24067 50.5596 5.92431C50.3258 5.61431 50.1082 5.32464 49.9068 5.05656C49.7005 4.7923 49.4979 4.56107 49.3216 4.34508C49.2328 4.23836 49.1478 4.13672 49.069 4.04144C48.9902 3.94615 48.9089 3.86357 48.8364 3.78225C48.6901 3.62344 48.5662 3.4875 48.4662 3.37697C48.2649 3.15717 48.1573 3.04028 48.1573 3.04028C48.1573 3.04028 48.2674 3.15463 48.4737 3.37061C48.5763 3.4786 48.7038 3.61074 48.8539 3.76701C48.9277 3.84578 49.0114 3.92709 49.0915 4.02111C49.1728 4.11512 49.2591 4.21549 49.3491 4.32094C49.5292 4.53312 49.7368 4.76181 49.9481 5.02353C50.1544 5.28906 50.3783 5.57493 50.6171 5.88239C50.8472 6.19493 51.0811 6.53796 51.3337 6.8937C51.3987 6.98137 51.4563 7.07665 51.5163 7.17067C51.5763 7.26596 51.6363 7.36125 51.6976 7.4578C51.8202 7.65219 51.9452 7.85039 52.0728 8.05367C52.1903 8.26203 52.3116 8.47547 52.4342 8.69273C52.4955 8.80199 52.5567 8.91125 52.6193 9.02179C52.6505 9.07769 52.6818 9.13232 52.7131 9.18949C52.7418 9.24667 52.7706 9.30384 52.7993 9.36228C53.0282 9.82601 53.2821 10.2986 53.4947 10.8068C53.9574 11.8067 54.3463 12.9044 54.6964 14.0555C54.7765 14.3452 54.8565 14.6387 54.9378 14.9334C54.9816 15.0795 55.0141 15.2294 55.0466 15.3806C55.0803 15.5305 55.1141 15.6817 55.1479 15.8329C55.1816 15.9841 55.2154 16.1353 55.2492 16.2878C55.2842 16.4402 55.3042 16.5952 55.333 16.749C55.3855 17.0577 55.443 17.3677 55.4918 17.6802C55.6694 18.9329 55.7619 20.2212 55.7744 21.5032C55.7606 22.7889 55.6681 24.0734 55.4905 25.3261C55.4405 25.6386 55.3842 25.9486 55.3317 26.2574C55.3029 26.4111 55.2817 26.5661 55.2479 26.7185C55.2142 26.871 55.1804 27.0222 55.1466 27.1734C55.1129 27.3246 55.0791 27.4758 55.0453 27.6257L54.9953 27.8506C54.9778 27.9255 54.9553 27.9979 54.9365 28.0729C54.8552 28.3677 54.7752 28.6599 54.6952 28.9508C54.6577 29.0969 54.6101 29.2392 54.5639 29.3802C54.5176 29.5225 54.4713 29.6636 54.4251 29.8033C54.3338 30.0841 54.2462 30.3636 54.1362 30.6317C54.0324 30.901 53.9298 31.1691 53.8273 31.4321C53.7223 31.6938 53.6022 31.9466 53.4934 32.1995C53.2808 32.7077 53.0269 33.1803 52.7981 33.644C52.7693 33.7025 52.7406 33.7597 52.7118 33.8168C52.6805 33.8727 52.6493 33.9286 52.618 33.9845C52.5555 34.0951 52.4942 34.2056 52.4329 34.3136C52.3104 34.5308 52.1903 34.7443 52.0715 34.9526C51.944 35.1559 51.8189 35.3541 51.6976 35.5485C51.5738 35.7416 51.4613 35.936 51.335 36.1139C51.0823 36.4696 50.8485 36.8114 50.6184 37.1252C50.3795 37.4314 50.1557 37.7185 49.9494 37.9841C49.738 38.2458 49.5304 38.4745 49.3503 38.6866C49.2591 38.7921 49.1728 38.8925 49.0927 38.9865C49.0127 39.0805 48.9277 39.1618 48.8551 39.2406C48.7063 39.3968 48.5788 39.529 48.4762 39.637C48.2661 39.8466 48.1561 39.9622 48.1561 39.9622Z" fill="white"/>
<path d="M46.6629 38.4414C46.6629 38.4414 46.7617 38.3334 46.9455 38.1314C47.0381 38.0298 47.1519 37.9053 47.2857 37.7591C47.352 37.6855 47.427 37.6092 47.4983 37.5216C47.5708 37.4339 47.6483 37.3412 47.7296 37.2433C47.8909 37.0451 48.0773 36.833 48.2661 36.5903C48.4512 36.3438 48.6513 36.0783 48.8651 35.7937C49.0702 35.504 49.279 35.1864 49.5041 34.8573C49.7205 34.5219 49.9343 34.1611 50.1657 33.7888C50.272 33.597 50.3795 33.4013 50.4896 33.2019C50.5446 33.1015 50.5996 33.0011 50.6559 32.8995C50.6834 32.8487 50.7122 32.7978 50.7397 32.7458C50.7659 32.6937 50.791 32.6403 50.8172 32.5869C51.0211 32.1601 51.2487 31.7281 51.4375 31.2618C51.535 31.0306 51.6413 30.7981 51.7351 30.558C51.8252 30.3166 51.9165 30.0714 52.009 29.8249C52.1065 29.5797 52.1828 29.3243 52.2666 29.0677C52.3079 28.9393 52.3491 28.811 52.3917 28.6814C52.4342 28.5518 52.4767 28.4223 52.5105 28.2901C52.5817 28.0259 52.6543 27.7591 52.7268 27.4897C52.7656 27.3563 52.7956 27.2191 52.8256 27.0819C52.8556 26.9447 52.8856 26.8075 52.9169 26.669C52.9469 26.5305 52.9782 26.3933 53.0082 26.2535C53.0394 26.115 53.0582 25.974 53.0832 25.833C53.1307 25.5509 53.1808 25.2689 53.2258 24.9843C53.3833 23.8421 53.4634 22.672 53.4721 21.5006C53.4634 20.3266 53.3833 19.1603 53.2258 18.0169C53.182 17.7323 53.1307 17.4502 53.0832 17.1682C53.0582 17.0272 53.0394 16.8861 53.0082 16.7477C52.9782 16.6092 52.9469 16.4707 52.9169 16.3335C52.8869 16.195 52.8569 16.0578 52.8256 15.9206C52.7956 15.7833 52.7668 15.6461 52.7281 15.5127C52.6555 15.2434 52.583 14.9766 52.5117 14.7123C52.4779 14.5789 52.4354 14.4493 52.3929 14.321C52.3516 14.1914 52.3091 14.0631 52.2679 13.9348C52.1841 13.6781 52.1065 13.4228 52.0102 13.1776C51.9177 12.9298 51.8264 12.6859 51.7364 12.4445C51.6426 12.2043 51.5363 11.9731 51.4387 11.7406C51.2499 11.2743 51.0236 10.8411 50.8185 10.4155C50.7922 10.3621 50.7672 10.31 50.7409 10.2567C50.7134 10.2059 50.6847 10.1538 50.6571 10.1029C50.6009 10.0013 50.5459 9.90094 50.4908 9.80057C50.3808 9.6011 50.2732 9.40544 50.1669 9.2136C49.9356 8.84134 49.7217 8.48052 49.5054 8.14511C49.2803 7.81605 49.0715 7.4997 48.8664 7.20875C48.6525 6.92416 48.4524 6.65863 48.2674 6.41215C48.0785 6.16949 47.8922 5.95731 47.7309 5.75911C47.6496 5.66129 47.572 5.56854 47.4995 5.48088C47.427 5.39321 47.352 5.31698 47.2869 5.24329C47.1531 5.09719 47.0393 4.97268 46.9468 4.87104C46.7617 4.66903 46.6642 4.56104 46.6642 4.56104C46.6642 4.56104 46.7654 4.66649 46.9543 4.86341C47.0493 4.96251 47.1656 5.08448 47.3032 5.22678C47.3707 5.29919 47.4482 5.37288 47.522 5.45928C47.5958 5.54567 47.6758 5.63715 47.7584 5.7337C47.9235 5.92809 48.1135 6.13899 48.3086 6.37785C48.4987 6.62051 48.7038 6.88351 48.9226 7.16556C49.134 7.45269 49.3491 7.7665 49.5804 8.09302C49.6967 8.25564 49.7993 8.43478 49.9131 8.61138C50.0256 8.78925 50.1394 8.9722 50.257 9.1577C50.3658 9.34954 50.4758 9.5452 50.5884 9.74467C50.6446 9.84504 50.7009 9.94541 50.7584 10.047C50.7872 10.0979 50.816 10.1487 50.8447 10.2008C50.871 10.2529 50.8973 10.3062 50.9248 10.3596C51.1349 10.7852 51.3675 11.2184 51.5625 11.6847C51.9877 12.602 52.3441 13.6095 52.6655 14.6666C52.7393 14.9334 52.8131 15.2015 52.8869 15.4721C52.9269 15.6067 52.9569 15.744 52.9869 15.8824C53.0182 16.0209 53.0482 16.1581 53.0795 16.2979C53.1107 16.4364 53.142 16.5761 53.1733 16.7159C53.2045 16.8556 53.2245 16.9979 53.2508 17.139C53.2996 17.4223 53.3521 17.7069 53.3971 17.994C53.5597 19.1438 53.6447 20.3254 53.6572 21.5031C53.6447 22.6834 53.5597 23.8624 53.3971 25.0122C53.3508 25.2994 53.2996 25.5827 53.2508 25.8673C53.2245 26.0083 53.2058 26.1506 53.1733 26.2904C53.142 26.4301 53.1107 26.5686 53.0795 26.7084C53.0482 26.8468 53.0169 26.9853 52.9869 27.1238C52.9569 27.2623 52.9256 27.3995 52.8869 27.5342C52.8131 27.8048 52.7393 28.0729 52.6655 28.3397C52.3441 29.3955 51.9865 30.4042 51.5613 31.3215C51.3662 31.7878 51.1336 32.221 50.9235 32.6467C50.8973 32.7 50.871 32.7521 50.8435 32.8055C50.8147 32.8563 50.786 32.9084 50.7572 32.9592C50.6997 33.0608 50.6434 33.1612 50.5871 33.2616C50.4746 33.4611 50.3645 33.6567 50.2557 33.8486C50.1382 34.0353 50.0244 34.217 49.9118 34.3949C49.798 34.5715 49.6955 34.7506 49.5779 34.9132C49.3453 35.2397 49.1315 35.5536 48.9201 35.8407C48.7013 36.1215 48.4962 36.3845 48.3061 36.6284C48.1123 36.8685 47.9222 37.0782 47.7559 37.2725C47.6721 37.3691 47.5933 37.4606 47.5195 37.547C47.4457 37.6334 47.3682 37.7071 47.3007 37.7795C47.1631 37.923 47.0468 38.0437 46.9518 38.1428C46.7642 38.336 46.6629 38.4414 46.6629 38.4414Z" fill="white"/>
<path d="M45.1673 36.9207C45.1673 36.9207 45.2573 36.8229 45.4249 36.6387C45.5087 36.5472 45.6125 36.4329 45.7338 36.2995C45.7938 36.2321 45.8613 36.1622 45.9276 36.0822C45.9939 36.0022 46.0639 35.9183 46.1377 35.8281C46.284 35.6477 46.4541 35.4546 46.6254 35.2335C46.793 35.0099 46.9756 34.7672 47.1694 34.5081C47.357 34.2438 47.5458 33.9554 47.7496 33.6556C47.946 33.3506 48.1411 33.0216 48.3512 32.6824C48.4475 32.507 48.545 32.3292 48.645 32.1475C48.6951 32.056 48.7451 31.9645 48.7964 31.8718C48.8214 31.826 48.8464 31.779 48.8726 31.732C48.8964 31.6837 48.9189 31.6355 48.9427 31.5872C49.129 31.1997 49.3353 30.8058 49.5067 30.3802C49.5955 30.1693 49.6917 29.9584 49.7768 29.7399C49.8593 29.5201 49.9419 29.2977 50.0256 29.0729C50.1144 28.8493 50.1845 28.6168 50.2595 28.3843C50.297 28.2674 50.3345 28.1505 50.3733 28.0323C50.4121 27.9142 50.4508 27.7973 50.4808 27.6753C50.5459 27.4339 50.6122 27.1913 50.6784 26.9473C50.7134 26.8254 50.741 26.7008 50.7672 26.5763C50.7947 26.4518 50.8222 26.326 50.8498 26.2015C50.8773 26.0758 50.9048 25.95 50.9323 25.8242C50.9598 25.6984 50.9773 25.5688 51.0011 25.4418C51.0436 25.1851 51.0899 24.9285 51.1299 24.6693C51.2724 23.6313 51.345 22.5628 51.3537 21.502C51.345 20.4284 51.2737 19.3713 51.1299 18.3295C51.0899 18.0704 51.0436 17.8137 51.0011 17.5571C50.9773 17.4288 50.9611 17.3004 50.9323 17.1747C50.9048 17.0489 50.8773 16.9231 50.8498 16.7973C50.8222 16.6715 50.7947 16.547 50.7672 16.4225C50.741 16.298 50.7134 16.1735 50.6784 16.0515C50.6122 15.8063 50.5459 15.5637 50.4808 15.3235C50.4508 15.2028 50.4108 15.0847 50.3733 14.9665C50.3358 14.8484 50.297 14.7315 50.2595 14.6146C50.1832 14.3821 50.1132 14.1496 50.0244 13.926C49.9406 13.7011 49.8581 13.4788 49.7755 13.259C49.6905 13.0405 49.5942 12.8296 49.5054 12.6186C49.3341 12.1943 49.1277 11.8004 48.9414 11.4117C48.9177 11.3634 48.8939 11.3151 48.8714 11.2668C48.8464 11.2198 48.8201 11.1741 48.7951 11.1271C48.7438 11.0343 48.6938 10.9429 48.6438 10.8514C48.5437 10.6697 48.4462 10.4918 48.3499 10.3165C48.1398 9.97728 47.946 9.64822 47.7484 9.3433C47.5433 9.04347 47.3545 8.75506 47.1681 8.4908C46.9743 8.23162 46.7917 7.98895 46.6242 7.76535C46.4516 7.54428 46.2828 7.34989 46.1364 7.17075C46.0627 7.08182 45.9914 6.99669 45.9263 6.91665C45.8613 6.83661 45.7925 6.76801 45.7325 6.6994C45.6112 6.566 45.5074 6.45292 45.4236 6.36018C45.2561 6.17595 45.166 6.07812 45.166 6.07812C45.166 6.07812 45.2586 6.17341 45.4299 6.35382C45.5162 6.44403 45.6225 6.55456 45.7475 6.68415C45.8088 6.75022 45.8801 6.81755 45.9464 6.89633C46.0139 6.9751 46.0864 7.05768 46.1627 7.14661C46.3128 7.32448 46.4866 7.51506 46.6629 7.73231C46.8355 7.95338 47.0231 8.1935 47.2232 8.44887C47.4157 8.7106 47.6108 8.99519 47.8234 9.29248C48.0273 9.59486 48.2249 9.92392 48.4399 10.2619C48.5387 10.4359 48.6388 10.6138 48.7426 10.7955C48.7939 10.8857 48.8451 10.9784 48.8977 11.0699C48.9239 11.1156 48.9502 11.1627 48.9764 11.2097C49.0002 11.2579 49.0252 11.3062 49.049 11.3545C49.2403 11.742 49.4529 12.1359 49.6305 12.5615C50.0181 13.3962 50.3433 14.3148 50.6359 15.2753C50.7022 15.5179 50.7697 15.7619 50.8372 16.0083C50.8735 16.1303 50.901 16.2561 50.9285 16.3819C50.9561 16.5076 50.9848 16.6334 51.0136 16.7592C51.0423 16.885 51.0698 17.012 51.0986 17.1391C51.1274 17.2661 51.1449 17.3957 51.1686 17.524C51.2124 17.782 51.2599 18.0411 51.3025 18.3016C51.45 19.3472 51.5288 20.4271 51.5401 21.4943C51.5288 22.5743 51.45 23.644 51.3025 24.6922C51.2612 24.9526 51.2137 25.2118 51.1686 25.4697C51.1449 25.5981 51.1274 25.7276 51.0986 25.8547C51.0698 25.9817 51.0423 26.1088 51.0136 26.2346C50.9848 26.3604 50.9573 26.4874 50.9285 26.6119C50.901 26.7377 50.8735 26.8622 50.8372 26.9854C50.7697 27.2319 50.7022 27.4759 50.6359 27.7185C50.3433 28.6803 50.0169 29.5976 49.6292 30.4323C49.4516 30.8566 49.239 31.2505 49.0477 31.6393C49.024 31.6876 48.9989 31.7358 48.9752 31.7841C48.9489 31.8311 48.9227 31.8769 48.8964 31.9239C48.8439 32.0166 48.7926 32.1081 48.7413 32.1983C48.6388 32.38 48.5375 32.5578 48.4387 32.7319C48.2236 33.0699 48.026 33.3989 47.8222 33.7013C47.6108 33.9986 47.4157 34.2832 47.2219 34.5449C47.0218 34.8003 46.8355 35.0404 46.6617 35.2615C46.4853 35.48 46.3115 35.6706 46.1602 35.8484C46.0839 35.9361 46.0126 36.0199 45.9439 36.0987C45.8763 36.1775 45.8063 36.2448 45.745 36.3109C45.62 36.4405 45.5137 36.5523 45.4274 36.6412C45.2598 36.8242 45.1673 36.9207 45.1673 36.9207Z" fill="white"/>
<path d="M43.6716 35.4C43.6716 35.4 43.7516 35.311 43.9029 35.1446C43.978 35.062 44.0717 34.9591 44.1805 34.8384C44.2918 34.7202 44.4119 34.5754 44.5444 34.414C44.677 34.2514 44.8283 34.0774 44.9834 33.8779C45.1347 33.6759 45.2985 33.4574 45.4736 33.2236C45.6424 32.9847 45.8125 32.7256 45.9963 32.4549C46.1739 32.1792 46.349 31.8832 46.5378 31.5783C46.6241 31.4208 46.7129 31.2594 46.8029 31.0955C46.848 31.0129 46.893 30.9303 46.9392 30.8478C46.9618 30.8058 46.9843 30.7639 47.008 30.722C47.0293 30.6788 47.0505 30.6356 47.0718 30.5924C47.2394 30.243 47.4245 29.8873 47.5795 29.5048C47.9172 28.7527 48.196 27.9269 48.4562 27.068C48.5149 26.8508 48.5737 26.6322 48.6337 26.4112C48.6662 26.3019 48.69 26.1901 48.7138 26.077C48.7388 25.9652 48.7625 25.8522 48.7876 25.7391C48.8126 25.626 48.8376 25.5129 48.8626 25.3986C48.8876 25.2855 48.9026 25.1686 48.9239 25.0543C48.9626 24.8231 49.0039 24.5918 49.0402 24.3581C49.169 23.4217 49.234 22.4625 49.2403 21.502C49.2327 20.5389 49.1677 19.5835 49.0389 18.6459C49.0026 18.4121 48.9614 18.1809 48.9226 17.9497C48.9014 17.8341 48.8863 17.7184 48.8613 17.6054C48.8363 17.491 48.8113 17.3779 48.7863 17.2649C48.7613 17.1518 48.7363 17.0387 48.7125 16.9269C48.6888 16.8138 48.6638 16.702 48.6325 16.5928C48.5725 16.3717 48.5137 16.1532 48.4549 15.9359C48.4274 15.8267 48.3924 15.7199 48.3574 15.6145C48.3236 15.509 48.2886 15.4023 48.2548 15.2981C48.186 15.0885 48.1235 14.8789 48.0435 14.6769C47.9684 14.4736 47.8934 14.2741 47.8196 14.0759C47.7433 13.879 47.6558 13.6884 47.577 13.4991C47.4232 13.1167 47.2369 12.761 47.0693 12.4116C47.048 12.3684 47.0268 12.3252 47.0055 12.282C46.983 12.2401 46.9593 12.1981 46.9367 12.1562C46.8905 12.0723 46.8455 11.9898 46.8004 11.9085C46.7104 11.7446 46.6216 11.5832 46.5353 11.4257C46.3465 11.1207 46.1714 10.8234 45.9938 10.549C45.81 10.2784 45.6399 10.018 45.4711 9.78037C45.296 9.5466 45.1322 9.32807 44.9809 9.12606C44.8258 8.92659 44.6733 8.75126 44.5419 8.58991C44.4094 8.42856 44.2906 8.28372 44.178 8.16556C44.0692 8.04487 43.9754 7.94323 43.9004 7.85937C43.7491 7.69294 43.6691 7.604 43.6691 7.604C43.6691 7.604 43.7516 7.6904 43.9079 7.85175C43.9855 7.93306 44.0817 8.03216 44.1943 8.14905C44.2493 8.20876 44.3131 8.26847 44.3744 8.33962C44.4357 8.41077 44.5007 8.48573 44.5695 8.5645C44.7058 8.72458 44.8621 8.8961 45.0209 9.09303C45.1772 9.2925 45.346 9.50848 45.5261 9.73844C45.7 9.97348 45.8763 10.2314 46.0676 10.4982C46.2514 10.7701 46.4303 11.0674 46.6241 11.371C46.7129 11.5286 46.8042 11.6887 46.8967 11.8525C46.943 11.9339 46.9893 12.0164 47.0368 12.1003C47.0605 12.1422 47.0843 12.1841 47.1068 12.2261C47.1281 12.2693 47.1506 12.3125 47.1718 12.3557C47.3444 12.7051 47.537 13.0608 47.6971 13.4432C48.0472 14.1953 48.3411 15.0237 48.605 15.8902C48.665 16.1087 48.7263 16.3298 48.7876 16.5508C48.8201 16.6614 48.8451 16.7745 48.8701 16.8875C48.8951 17.0006 48.9214 17.1137 48.9464 17.228C48.9714 17.3424 48.9976 17.4567 49.0227 17.5711C49.0489 17.6854 49.0652 17.8023 49.0864 17.9192C49.1264 18.1517 49.169 18.3854 49.2065 18.6205C49.3403 19.5645 49.4116 20.5364 49.4216 21.502C49.4103 22.4714 49.3403 23.4395 49.2065 24.3835C49.169 24.6185 49.1264 24.8523 49.0864 25.0848C49.0652 25.2004 49.0489 25.3173 49.0227 25.4329C48.9964 25.5472 48.9714 25.6616 48.9464 25.7759C48.9214 25.8903 48.8951 26.0034 48.8701 26.1164C48.8451 26.2295 48.8201 26.3426 48.7876 26.4531C48.7263 26.6754 48.6663 26.8952 48.605 27.1138C48.3411 27.9802 48.046 28.8086 47.6971 29.5607C47.537 29.9432 47.3444 30.2989 47.1718 30.6483C47.1493 30.6915 47.1281 30.7347 47.1068 30.7779C47.0831 30.8198 47.0593 30.8617 47.0368 30.9037C46.9893 30.9875 46.943 31.0701 46.8967 31.1514C46.8042 31.3153 46.7129 31.4754 46.6241 31.6329C46.429 31.9366 46.2514 32.2339 46.0676 32.5058C45.8763 32.7738 45.7 33.0305 45.5261 33.2655C45.346 33.4955 45.1772 33.7115 45.0209 33.9109C44.8608 34.1079 44.7045 34.2794 44.5682 34.4395C44.4994 34.5182 44.4344 34.5932 44.3731 34.6643C44.3118 34.7355 44.2493 34.7952 44.193 34.8549C44.0805 34.9718 43.9842 35.0722 43.9067 35.1522C43.7541 35.3136 43.6716 35.4 43.6716 35.4Z" fill="white"/>
<path d="M42.176 33.8778C42.176 33.8778 42.2472 33.799 42.3823 33.6504C42.5136 33.5005 42.72 33.2909 42.9538 32.9986C43.0714 32.8538 43.2064 32.6975 43.344 32.5209C43.479 32.3405 43.6241 32.1461 43.7792 31.9378C43.9292 31.7256 44.0805 31.4931 44.2444 31.253C44.4019 31.0078 44.5583 30.7435 44.7258 30.4716C44.8021 30.3319 44.8809 30.1883 44.9609 30.0422C45.0385 29.8948 45.1273 29.75 45.1985 29.5924C45.3473 29.2812 45.5124 28.9648 45.6487 28.6243C45.9489 27.9548 46.1952 27.2191 46.4278 26.4543C46.6517 25.6857 46.8192 24.8738 46.9468 24.0416C47.0606 23.2082 47.1181 22.3544 47.1244 21.4994C47.1181 20.6418 47.0606 19.7918 46.9468 18.9571C46.8192 18.1262 46.6504 17.3143 46.4278 16.5444C46.3765 16.3513 46.309 16.1645 46.2502 15.9765C46.189 15.7897 46.1327 15.603 46.0627 15.4238C45.9951 15.2434 45.9289 15.0643 45.8638 14.8877C45.795 14.7124 45.7188 14.5434 45.6475 14.3744C45.5112 14.0339 45.3448 13.7176 45.1973 13.4063C45.126 13.2487 45.0372 13.1039 44.9597 12.9565C44.8796 12.8104 44.8009 12.6669 44.7246 12.5271C44.557 12.2552 44.4007 11.991 44.2431 11.7457C44.0793 11.5044 43.928 11.2731 43.7792 11.0609C43.6241 10.8526 43.4778 10.6582 43.344 10.4778C43.2064 10.2999 43.0714 10.1436 42.9538 9.99881C42.7212 9.7066 42.5149 9.49824 42.3836 9.34705C42.2497 9.1984 42.1772 9.11963 42.1772 9.11963C42.1772 9.11963 42.251 9.19586 42.3898 9.33943C42.4598 9.41184 42.5449 9.49951 42.6462 9.60369C42.6962 9.65705 42.7525 9.71041 42.8075 9.77266C42.8625 9.83492 42.92 9.90226 42.9813 9.97213C43.1026 10.1144 43.2427 10.2669 43.3852 10.4422C43.5241 10.6201 43.6754 10.8119 43.8367 11.0165C43.9918 11.2261 44.1493 11.4548 44.3206 11.6924C44.4845 11.9351 44.6445 12.1993 44.8171 12.4699C44.8972 12.6097 44.9772 12.7533 45.061 12.8981C45.141 13.0455 45.2323 13.189 45.3073 13.3466C45.4611 13.6578 45.6325 13.9742 45.7763 14.3147C46.0889 14.9855 46.3515 15.7224 46.5866 16.4949C46.8155 17.2699 46.9906 18.0893 47.1231 18.9279C47.2419 19.7689 47.3057 20.6354 47.3145 21.4955C47.3045 22.3595 47.2419 23.2222 47.1219 24.0632C46.9893 24.9018 46.8155 25.7212 46.5854 26.4962C46.3503 27.2687 46.0864 28.0056 45.775 28.6764C45.6325 29.0169 45.4611 29.3333 45.3061 29.6445C45.231 29.8021 45.1398 29.9456 45.0597 30.093C44.9772 30.2391 44.8959 30.3814 44.8159 30.5212C44.642 30.7918 44.4832 31.056 44.3194 31.2987C44.1493 31.5363 43.9918 31.7663 43.8354 31.9746C43.6741 32.1792 43.5241 32.371 43.384 32.5489C43.2414 32.7229 43.1014 32.8767 42.9801 33.019C42.9188 33.0888 42.8613 33.1562 42.8062 33.2184C42.7525 33.282 42.6949 33.3353 42.6462 33.3874C42.5449 33.4916 42.4598 33.5805 42.3898 33.6517C42.2497 33.8016 42.176 33.8778 42.176 33.8778Z" fill="white"/>
<path d="M74.978 27H72.386V14.4H77.894C79.25 14.4 80.318 14.754 81.098 15.462C81.89 16.158 82.286 17.07 82.286 18.198C82.286 19.338 81.89 20.256 81.098 20.952C80.318 21.66 79.25 22.014 77.894 22.014H74.978V27ZM74.978 16.668V19.8H77.714C78.338 19.8 78.824 19.668 79.172 19.404C79.52 19.128 79.694 18.738 79.694 18.234C79.694 17.73 79.52 17.346 79.172 17.082C78.824 16.806 78.338 16.668 77.714 16.668H74.978ZM84.5696 27H81.8516L87.2516 14.328H89.7356L95.1356 27H92.3816L91.1396 24.084H85.8116L84.5696 27ZM88.4756 17.568L86.6216 21.942H90.3116L88.4756 17.568ZM99.3572 27H96.7652V14.4H102.273C103.629 14.4 104.697 14.754 105.477 15.462C106.269 16.158 106.665 17.07 106.665 18.198C106.665 19.338 106.269 20.256 105.477 20.952C104.697 21.66 103.629 22.014 102.273 22.014H99.3572V27ZM99.3572 16.668V19.8H102.093C102.717 19.8 103.203 19.668 103.551 19.404C103.899 19.128 104.073 18.738 104.073 18.234C104.073 17.73 103.899 17.346 103.551 17.082C103.203 16.806 102.717 16.668 102.093 16.668H99.3572ZM108.949 27H106.231L111.631 14.328H114.115L119.515 27H116.761L115.519 24.084H110.191L108.949 27ZM112.855 17.568L111.001 21.942H114.691L112.855 17.568ZM123.682 27H121.144V14.4H123.358L129.712 22.464V14.4H132.232V27H130.09L123.682 18.9V27ZM141.169 27H138.595V21.348L133.717 14.4H136.777L139.909 18.882L143.059 14.4H146.029L141.169 21.294V27ZM156.474 27H147.492V14.4H150.084V24.678H156.474V27Z" fill="white"/>
</svg>
