<svg xmlns="http://www.w3.org/2000/svg" width="157" height="43" fill="none"  xmlns:v="https://vecta.io/nano"><g fill-rule="evenodd"><path d="M30.001 14.43c-3.839 0-6.954 3.167-6.954 7.07s3.115 7.068 6.954 7.068 6.952-3.164 6.952-7.068-3.111-7.07-6.952-7.07zm0 9.841c-1.506 0-2.725-1.24-2.725-2.771s1.219-2.771 2.725-2.771 2.725 1.24 2.725 2.771-1.219 2.771-2.725 2.771z" fill="#d200fe"/><path d="M29.999 20.347c.627 0 1.134.516 1.134 1.152s-.508 1.152-1.134 1.152-1.134-.516-1.134-1.152.509-1.152 1.134-1.152z" fill="#161616"/></g><path d="M8.855 0l-.36.391-.434.47-.271.301-.799.957-.179.224-.762 1.01-.813 1.188c-.074.103-.139.215-.206.325l-.634 1.03-.623 1.129-.106.194-.099.201-.79 1.682-.379.893-.349.931-.329.962-.159.49-.151.498-.276 1.016-.068.257-.058.261-.231 1.05-.095.534-.181 1.079a34.4 34.4 0 0 0-.314 4.423 34.71 34.71 0 0 0 .314 4.428l.181 1.079.095.534.289 1.311.068.257.276 1.016.151.498.159.49.329.962.349.931.379.893c.24.592.53 1.141.79 1.682l.099.201.106.194.623 1.129.634 1.03.206.324.813 1.188.762 1.01.179.224.176.211.623.746.271.301.794.861-.807-.85-.276-.296-.3-.348-.334-.389-.18-.208-.183-.221-.779-1-.834-1.178a4.85 4.85 0 0 1-.211-.323l-.645-1.029-.42-.745-.215-.384-.109-.194-.1-.201-.808-1.682-.388-.893-.359-.933-.176-.476-.16-.488-.161-.493-.153-.501-.28-1.021-.069-.258-.059-.262-.236-1.056-.098-.537-.185-1.084C.123 24.494.015 22.992 0 21.503a34.31 34.31 0 0 1 .329-4.453l.185-1.084.098-.537.295-1.318.069-.258.28-1.021.153-.501.161-.493.336-.964.359-.933.388-.893c.246-.592.541-1.142.808-1.682l.1-.201.109-.194.215-.384.42-.745.645-1.029.211-.323.833-1.178.779-1 .183-.222.18-.208.334-.389.3-.348.276-.296.44-.464L8.855 0zm1.496 1.521l-.738.8-.253.28-.274.328-.634.77-.708.939-.755 1.104-.782 1.26-.383.692-.295.537-.091.187-.733 1.563-.351.83-.324.865-.305.893-.148.456-.14.463-.256.945-.063.239-.269 1.218-.089.497-.168 1.001a31.79 31.79 0 0 0-.291 4.111c.011 1.386.105 2.762.291 4.111l.168 1.001.089.497.269 1.218.063.239.256.945c.039.158.09.31.14.463l.148.456.305.893.324.865.351.83c.223.55.491 1.061.733 1.563l.091.187.099.181.196.357.383.692.782 1.26.755 1.104.708.939.634.77.274.328c.085.104.174.192.253.279l.403.437.335.365-.752-.789-.258-.276-.279-.324-.648-.76-.724-.929-.775-1.094c-.07-.095-.133-.197-.196-.3l-.602-.955-.59-1.048-.101-.18-.094-.187-.752-1.563-.361-.831-.334-.866-.164-.442-.299-.911-.143-.465-.261-.949-.064-.24-.055-.244-.219-.981-.091-.499-.173-1.008c-.191-1.356-.291-2.748-.306-4.137a32.24 32.24 0 0 1 .306-4.137l.173-1.008.091-.499.274-1.225.064-.24.261-.949.143-.465.15-.457.313-.896.334-.867.361-.831c.229-.55.504-1.061.752-1.563l.094-.187.301-.536.39-.692.405-.644.195-.311.198-.3L7.69 4.6l.724-.929.648-.76.279-.324.258-.276.41-.431.341-.362zm1.493 1.518l-.309.337-.37.405-.233.259-.253.304-.585.711-.653.868-.698 1.02-.722 1.165-.625 1.137-.084.173-.677 1.445-.324.766-.299.799c-.106.267-.19.546-.281.825l-.136.421-.129.427-.236.873-.058.221-.049.224-.099.45-.1.452-.083.459-.155.925c-.171 1.245-.259 2.521-.269 3.798.01 1.279.098 2.551.269 3.798l.155.925.081.459.1.452.099.45.108.445.236.873.129.427.136.421.281.825.299.799.324.766c.206.508.454.98.677 1.445l.084.173.091.168.534.969.722 1.165.698 1.02.653.868.585.712.253.304.233.259.37.405.309.338-.697-.727-.238-.254-.258-.3-.598-.703-.669-.859-.717-1.011c-.065-.088-.123-.183-.181-.277l-.181-.287-.374-.596-.64-1.136-.086-.173-.694-1.444c-.463-1-.852-2.098-1.202-3.249l-.241-.878a5.82 5.82 0 0 1-.109-.447l-.203-.907-.084-.461-.159-.931c-.178-1.253-.27-2.54-.283-3.823a29.54 29.54 0 0 1 .284-3.823l.159-.931.084-.461.252-1.132.059-.222.241-.878.131-.429.139-.423.289-.828.309-.8.334-.767c.211-.508.466-.981.694-1.445l.086-.173.094-.168.545-.968.374-.596.363-.565.717-1.011.669-.859.599-.703.258-.3.238-.254.379-.396.316-.328zM13.34 4.56l-.623.682-.213.238-.231.278-.537.653-.599.797-.639.936-.661 1.068-.49.889-.084.154-.078.159-.62 1.325-.298.704-.274.733c-.098.245-.174.501-.258.757l-.125.386-.119.391-.218.8-.099.408-.183.828-.075.421-.143.849c-.158 1.142-.238 2.312-.246 3.484.009 1.174.089 2.34.246 3.484l.143.849.075.421.183.828.098.408.218.8.119.391.125.386.258.757.274.733.298.704c.189.466.415.899.62 1.325l.078.159.084.154.166.302.324.587.662 1.069.639.936.599.797.537.653.231.278.213.238.34.372.283.31-.639-.666-.219-.233-.236-.274-.55-.644-.614-.788-.658-.927-.333-.518-.344-.546-.331-.587-.256-.456-.08-.159-.638-1.325c-.425-.917-.782-1.925-1.103-2.982l-.221-.805-.1-.41-.093-.415-.094-.418-.078-.423-.146-.855a27.23 27.23 0 0 1-.26-3.509c.013-1.18.098-2.359.26-3.509l.146-.855.078-.423.187-.833.1-.41.221-.805c.321-1.056.679-2.065 1.104-2.982.195-.466.428-.9.638-1.325l.08-.159.256-.456.331-.587.344-.546.334-.518.658-.927.614-.788.55-.644.236-.274.219-.233.638-.663z" fill="#161616"/><path d="M14.835 6.081l-.258.282-.309.339-.194.217-.21.254-.488.595-.544.725-.582.853-.601.973-.521.95-.07.145-.564 1.207-.27.64-.249.667c-.089.224-.159.456-.234.689l-.114.352-.108.357-.198.728-.089.371-.083.375-.083.377L9 17.56l-.129.773a24.69 24.69 0 0 0-.223 3.167 24.87 24.87 0 0 0 .223 3.172l.129.772.069.383.165.752.089.371.198.728.108.357.114.352.234.689.249.667.27.64c.171.424.378.818.564 1.207l.07.145.076.14.445.811.601.973.582.852.544.725.488.595.21.254.194.217.566.621-.583-.606-.199-.212-.216-.249-.502-.586-.56-.717-.6-.844-.617-.969-.303-.534-.234-.414-.072-.145-.582-1.207c-.388-.835-.713-1.753-1.005-2.715l-.201-.733a5.24 5.24 0 0 1-.091-.374l-.17-.757-.07-.385-.133-.778a24.95 24.95 0 0 1-.238-3.193 24.59 24.59 0 0 1 .238-3.198l.133-.777.07-.385.085-.38.085-.377.091-.373.201-.733c.293-.962.619-1.879 1.005-2.715.178-.424.39-.818.582-1.207l.072-.145.234-.414.303-.534.618-.969.6-.844.56-.717.502-.586.216-.25.199-.212.318-.33.264-.28zm1.496 1.52l-.509.562c-.112.118-.231.263-.364.424l-.439.536-.49.654-.523.769-.541.877-.47.856-.064.13-.508 1.088-.243.577-.224.601c-.08.201-.143.41-.211.621l-.103.316-.098.321-.178.657c-.032.109-.056.222-.08.334l-.074.338-.075.34-.061.344-.116.696a22.06 22.06 0 0 0-.2 2.856c.008.963.073 1.918.2 2.856l.116.696.061.344.149.678.08.334.178.657.098.322.103.316.211.621.224.602.243.577c.154.382.34.738.506 1.088l.064.13.069.126.401.731.541.877.523.769.49.654.439.536.364.424.509.561-.525-.545-.18-.191-.195-.225-.453-.527-.505-.645-.541-.76-.556-.873-.484-.855-.065-.13-.525-1.087c-.35-.752-.644-1.581-.908-2.447l-.183-.661-.083-.337-.076-.34-.076-.343-.064-.348-.12-.701a22.51 22.51 0 0 1-.215-2.881 22.46 22.46 0 0 1 .215-2.881l.12-.701.064-.348.076-.343.076-.341.083-.337.181-.661c.264-.868.559-1.695.908-2.447.16-.382.353-.738.525-1.088l.065-.13.07-.126.413-.729.556-.873.541-.76.505-.645.453-.529.195-.225.18-.191.286-.297.243-.25zm1.496 1.521l-.206.227-.572.652-.39.478-.435.583-.465.685-.482.781-.235.429-.238.45-.451.968c-.3.669-.548 1.405-.779 2.17-.224.769-.391 1.581-.52 2.413a19.65 19.65 0 0 0-.178 2.542c.006.858.064 1.708.178 2.542a19 19 0 0 0 .52 2.413l.178.568.188.553.199.536.216.513c.138.341.303.657.452.968.071.158.16.302.238.45l.235.43.481.781.465.685.435.583.39.479.57.652.206.227-.469-.484-.161-.169-.174-.2-.404-.47-.451-.574-.484-.676-.498-.778-.244-.428-.246-.448-.469-.968c-.313-.671-.575-1.408-.812-2.18a19.26 19.26 0 0 1-.538-2.433 19.91 19.91 0 0 1-.193-2.568 19.86 19.86 0 0 1 .193-2.568 19.26 19.26 0 0 1 .537-2.433c.235-.772.499-1.509.812-2.18l.469-.968c.075-.158.166-.301.246-.448l.244-.428.498-.777.484-.676.451-.574.404-.47.174-.199c.054-.064.111-.117.16-.169l.256-.264.215-.226zM51.147 43l.793-.861.271-.301.799-.957.179-.224.762-1.01.813-1.188c.074-.103.139-.215.206-.325l.634-1.03.729-1.324.099-.201.789-1.682.379-.893.349-.931c.124-.311.223-.637.328-.962l.159-.49.151-.498.276-1.016.067-.257.289-1.311.095-.534.181-1.079c.2-1.45.303-2.94.314-4.423a34.6 34.6 0 0 0-.314-4.428l-.181-1.079-.095-.534-.289-1.311-.067-.257-.276-1.016-.151-.498-.159-.49-.329-.962-.349-.931-.379-.893c-.24-.592-.529-1.141-.789-1.682l-.099-.201-.106-.194-.211-.384-.411-.746-.634-1.032-.206-.325-.813-1.188-.762-1.01-.179-.224-.799-.957L51.94.86l-.433-.47-.36-.39.807.85.276.296.3.348.513.597.183.221.779 1 .833 1.178c.075.103.142.212.211.323l.645 1.029.42.745.324.578.1.201.808 1.682.388.893.359.933.176.476.321.981.153.501.28 1.021.069.258.295 1.318.097.537.185 1.084a34.82 34.82 0 0 1 .329 4.448c-.015 1.502-.123 2.993-.329 4.453l-.185 1.084-.097.537-.295 1.317-.069.258-.28 1.021-.153.501-.161.493-.336.964-.359.933-.388.893c-.246.592-.541 1.142-.808 1.682l-.1.201-.109.194-.215.384-.42.744-.645 1.029-.211.323-.833 1.178-.778 1-.183.222-.18.208-.334.389-.3.348-.276.296-.807.85z" fill="#161616"/><path d="M49.652 41.479l.738-.8.253-.28.274-.328.634-.77.708-.939.755-1.104.782-1.26.383-.693.196-.357.099-.18.091-.187.733-1.563.351-.83.324-.865.305-.893.148-.456.14-.462.256-.945.063-.239.269-1.218.089-.497.168-1.001c.186-1.348.28-2.729.291-4.111a32.01 32.01 0 0 0-.291-4.111l-.168-1.001-.089-.497-.108-.489-.162-.73-.062-.239-.256-.945c-.039-.157-.09-.31-.14-.462l-.148-.456-.305-.893-.324-.865-.351-.83c-.223-.55-.492-1.061-.733-1.563l-.091-.187-.099-.18-.196-.357-.383-.692-.782-1.26-.755-1.104-.707-.939-.634-.77-.274-.328c-.085-.104-.174-.192-.253-.28l-.738-.802.752.789.258.276.279.324.648.76.724.929.775 1.094c.07.095.133.197.196.3l.195.311.405.644.692 1.229.094.187.752 1.563.361.831.334.867.164.442.299.911.142.465.26.949.064.24.054.244.219.981.091.499.173 1.008c.191 1.356.291 2.748.305 4.137a32.39 32.39 0 0 1-.305 4.137l-.173 1.008-.091.499-.11.492-.163.733-.064.24-.26.949-.142.465-.15.457-.313.896-.334.866-.361.831c-.229.55-.504 1.061-.75 1.564l-.094.187-.301.536-.39.692-.6.956-.196.3-.775 1.094-.724.929-.648.76-.279.324-.258.276-.754.791zm-1.496-1.517l.309-.337.37-.405.233-.259.253-.304.585-.712.653-.868.698-1.02.721-1.165.534-.969.091-.168.085-.173.677-1.444.324-.766.299-.799c.106-.267.19-.546.281-.825l.136-.421.13-.427.236-.873.057-.221.148-.674.1-.452.083-.459.155-.925c.171-1.245.259-2.521.269-3.798-.01-1.279-.098-2.551-.269-3.797l-.155-.925-.081-.459-.199-.902-.107-.445-.236-.873-.129-.427-.136-.421-.281-.824-.299-.799-.324-.766c-.206-.508-.454-.98-.676-1.445l-.085-.173-.091-.168-.534-.969-.722-1.164-.698-1.02-.653-.868-.585-.711-.253-.304-.233-.259-.37-.405-.309-.337.697.727.238.254.258.3.599.703.669.859.717 1.011c.065.088.123.183.183.277l.556.883.546.968.094.168.086.173.695 1.445c.463 1 .852 2.098 1.202 3.249l.241.878c.044.146.076.296.109.447l.101.452.101.455.084.461.159.931c.178 1.253.27 2.541.283 3.823a29.54 29.54 0 0 1-.284 3.823l-.159.931-.084.461-.253 1.132-.059.222-.241.878-.131.429-.139.423-.289.828-.309.8-.334.767c-.213.508-.467.981-.695 1.444l-.086.173-.094.168-.185.329-.361.639-.374.596-.363.565-.717 1.011-.669.859-.599.703-.258.3-.238.254-.379.396-.32.325zm-1.493-1.521l.623-.682.213-.237.231-.278.537-.653.599-.797.639-.936.662-1.069.49-.889.084-.154.078-.159.62-1.325.298-.704.274-.733.258-.757.125-.386.119-.391.216-.8.099-.408.091-.413.091-.416.075-.421.143-.849c.157-1.142.238-2.312.246-3.484-.009-1.174-.089-2.34-.246-3.484l-.143-.849-.075-.421-.183-.827-.098-.408-.216-.8-.119-.391-.125-.386-.258-.757-.274-.733-.298-.704c-.189-.466-.415-.899-.62-1.325l-.078-.159-.084-.154-.166-.302-.324-.587-.661-1.068-.639-.936-.599-.797-.537-.653-.231-.278-.213-.238-.623-.682.639.666.219.232.236.274.55.644.614.788.658.927.333.518.344.546.587 1.043.08.159.638 1.325c.425.917.782 1.925 1.103 2.982l.221.805.1.41.187.833.078.423.146.855c.163 1.15.248 2.331.26 3.509a27.19 27.19 0 0 1-.26 3.509l-.146.855-.078.423-.187.833-.1.41-.221.806c-.321 1.056-.679 2.064-1.104 2.982-.195.466-.428.899-.638 1.325l-.08.159-.086.154-.501.889-.344.546-.334.518-.658.927-.614.788-.55.644-.236.274-.219.233-.349.363-.289.299zm-1.496-1.52l.567-.621.194-.217.21-.254.488-.595.544-.725.58-.852.602-.973.521-.95.07-.145.564-1.207.27-.64.249-.667c.089-.224.159-.456.234-.689l.114-.352.108-.357.198-.728.089-.371.083-.375.082-.377.069-.382.129-.773a25.06 25.06 0 0 0 .224-3.167 24.63 24.63 0 0 0-.224-3.172l-.129-.772-.069-.382-.082-.377-.083-.375-.089-.371-.198-.728-.108-.357-.114-.352-.235-.689-.249-.667-.27-.64c-.171-.424-.378-.818-.564-1.207l-.07-.145-.076-.14-.445-.811-.602-.973-.58-.852-.544-.725-.488-.595-.21-.254-.194-.217-.309-.339-.258-.282.264.276.318.33.199.212.216.25.5.586.56.717.6.844.617.969.537.948.073.145.581 1.207c.388.835.713 1.753 1.005 2.714l.201.733.091.374.085.377.085.38.07.385.134.778c.148 1.046.226 2.125.238 3.193a24.83 24.83 0 0 1-.238 3.198l-.134.777-.07.385-.085.38-.085.377-.091.373-.201.733c-.293.962-.619 1.879-1.007 2.714-.178.424-.39.818-.581 1.207l-.072.145-.234.414-.303.534-.616.969-.6.844-.56.717-.502.587-.216.25-.199.212-.318.33-.26.279zM43.672 35.4l.509-.562.364-.424.439-.536.49-.654.523-.769.541-.877.47-.857.064-.13.508-1.088c.338-.752.616-1.578.877-2.437l.177-.657c.033-.109.056-.221.08-.334l.149-.679.061-.344.116-.696a22.08 22.08 0 0 0 .2-2.856 22.52 22.52 0 0 0-.201-2.856l-.116-.696-.061-.344-.075-.34-.074-.338-.08-.334-.178-.657-.098-.321-.103-.316-.211-.621-.224-.601-.243-.577c-.154-.382-.34-.738-.508-1.088l-.064-.13-.47-.857-.541-.877-.523-.769-.49-.654-.439-.536-.364-.424-.509-.562.525.545.18.191.195.225.451.529.505.645.541.76.556.873.413.729.07.126.065.13.525 1.087c.35.752.644 1.581.908 2.447l.183.661.083.337.152.684.064.348.12.701a22.24 22.24 0 0 1 .215 2.881 22.46 22.46 0 0 1-.215 2.882l-.12.701-.064.348-.153.683-.083.337-.183.661c-.264.866-.559 1.695-.908 2.447-.16.383-.353.738-.525 1.088l-.065.13-.07.126-.413.729-.556.873-.541.76-.505.645-.453.529-.195.225-.18.191-.286.297-.235.248zm-1.496-1.522l.206-.227.572-.652.39-.478.435-.583.465-.685.481-.781.235-.429.238-.45.45-.968c.3-.67.547-1.405.779-2.17.224-.769.391-1.581.519-2.413a20.01 20.01 0 0 0 .178-2.542 19.91 19.91 0 0 0-.178-2.542c-.128-.831-.296-1.643-.519-2.413l-.178-.568-.187-.553-.199-.536-.216-.513c-.136-.341-.303-.657-.45-.968-.071-.158-.16-.302-.238-.45l-.235-.429-.482-.781-.464-.685-.435-.583-.39-.479-.57-.652-.206-.227.213.22.256.264.161.169.174.199.404.47.452.574.484.676.497.778.244.428.246.449.469.968a16.66 16.66 0 0 1 .81 2.18 19.26 19.26 0 0 1 .537 2.433c.119.841.183 1.707.191 2.568a19.86 19.86 0 0 1-.193 2.568c-.133.839-.306 1.658-.536 2.433s-.499 1.509-.81 2.18c-.142.34-.314.657-.469.968-.075.158-.166.301-.246.448l-.244.428-.496.777-.484.676-.451.574-.404.47-.174.199c-.054.064-.111.117-.16.169l-.256.264-.214.226zM74.978 27h-2.592V14.4h5.508c1.356 0 2.424.354 3.204 1.062.792.696 1.188 1.608 1.188 2.736 0 1.14-.396 2.058-1.188 2.754-.78.708-1.848 1.062-3.204 1.062h-2.916V27zm0-10.332V19.8h2.736c.624 0 1.11-.132 1.458-.396.348-.276.522-.666.522-1.17s-.174-.888-.522-1.152c-.348-.276-.834-.414-1.458-.414h-2.736zM84.57 27h-2.718l5.4-12.672h2.484L95.136 27h-2.754l-1.242-2.916h-5.328L84.57 27zm3.906-9.432l-1.854 4.374h3.69l-1.836-4.374zM99.357 27h-2.592V14.4h5.508c1.356 0 2.424.354 3.204 1.062.792.696 1.188 1.608 1.188 2.736 0 1.14-.396 2.058-1.188 2.754-.78.708-1.848 1.062-3.204 1.062h-2.916V27zm0-10.332V19.8h2.736c.624 0 1.11-.132 1.458-.396.348-.276.522-.666.522-1.17s-.174-.888-.522-1.152c-.348-.276-.834-.414-1.458-.414h-2.736zM108.949 27h-2.718l5.4-12.672h2.484l5.4 12.672h-2.754l-1.242-2.916h-5.328L108.949 27zm3.906-9.432l-1.854 4.374h3.69l-1.836-4.374zM123.682 27h-2.538V14.4h2.214l6.354 8.064V14.4h2.52V27h-2.142l-6.408-8.1V27zm17.487 0h-2.574v-5.652l-4.878-6.948h3.06l3.132 4.482 3.15-4.482h2.97l-4.86 6.894V27zm15.305 0h-8.982V14.4h2.592v10.278h6.39V27z" fill="#161616"/></svg>