<svg width="24" height="24" viewBox="0 0 24 24" fill="none" xmlns="http://www.w3.org/2000/svg">
<path d="M20.8161 13.5783C21.402 8.56022 20.5347 5.39218 18.9703 3.95928L18.9711 3.95845C16.4462 1.51144 7.91909 1.14926 4.89835 4.06835C3.5418 5.49626 3.06398 7.59191 3.01162 10.1863C2.95925 12.7815 2.89707 17.643 7.34881 18.9619H7.3529L7.34881 20.9759C7.34881 20.9759 7.31854 21.7919 7.83072 21.9559C8.41654 22.1491 8.68163 21.7702 10.5037 19.5555C13.5507 19.8244 15.8907 19.2083 16.1566 19.1184C16.7718 18.9086 20.2532 18.4398 20.8161 13.5783ZM10.804 18.1384C10.804 18.1384 8.87554 20.5854 8.27582 21.2207C8.07945 21.4272 7.86427 21.4081 7.86754 20.9984C7.86754 20.7295 7.88227 17.6547 7.88227 17.6547C4.10798 16.554 4.33053 12.4143 4.37144 10.2487C4.41235 8.08231 4.8018 6.30804 5.95053 5.11326C8.60063 2.58466 16.0764 3.14999 17.9811 4.97172C20.3097 7.07237 19.4809 13.0071 19.4858 13.2095C19.0071 17.2675 16.186 17.5248 15.6673 17.7005C15.4456 17.7754 13.3878 18.3141 10.804 18.1384Z" fill="white"/>
<path d="M11.8705 5.58838C11.5555 5.58838 11.5555 6.08794 11.8705 6.0921C14.3144 6.11125 16.3272 7.84472 16.3493 11.0244C16.3493 11.36 16.832 11.3558 16.8279 11.0203H16.8271C16.8009 7.59411 14.6033 5.60753 11.8705 5.58838Z" fill="white"/>
<path d="M15.0855 10.4979C15.0781 10.8292 15.56 10.8451 15.5641 10.5095C15.6042 8.62035 14.4596 7.06422 12.3085 6.9002C11.9935 6.87689 11.9608 7.38061 12.275 7.40392C14.1405 7.54796 15.1231 8.84349 15.0855 10.4979Z" fill="white"/>
<path d="M14.5696 12.6464C14.1654 12.4082 13.7539 12.5564 13.5837 12.7904L13.2278 13.2592C13.047 13.4973 12.7091 13.4656 12.7091 13.4656C10.2431 12.8021 9.58361 10.176 9.58361 10.176C9.58361 10.176 9.55333 9.82053 9.77915 9.62986L10.2242 9.25519C10.4468 9.07535 10.5875 8.6424 10.3609 8.21694C9.75543 7.10376 9.34879 6.71993 9.14179 6.42519C8.92415 6.14793 8.59688 6.08549 8.25651 6.27282H8.24915C7.54142 6.69412 6.7666 7.48259 7.01451 8.29437C7.43751 9.15029 8.21479 11.8787 10.6922 13.9402C11.8565 14.9152 13.6991 15.9143 14.4813 16.145L14.4886 16.1566C15.2593 16.418 16.0088 15.5988 16.4089 14.8569V14.8511C16.5864 14.4922 16.5275 14.1525 16.2682 13.9302C15.8083 13.474 15.1145 12.9703 14.5696 12.6464Z" fill="white"/>
<path d="M12.6457 8.75816C13.432 8.80479 13.8133 9.22275 13.8542 10.0812C13.8689 10.4167 14.3476 10.3934 14.3329 10.0579C14.2805 8.93717 13.7061 8.31272 12.6719 8.25444C12.3569 8.23529 12.3275 8.73901 12.6457 8.75816Z" fill="white"/>
</svg>
